<svg data-v-fde0c5aa="" xmlns="http://www.w3.org/2000/svg" viewBox="0 0 300 300" class="iconLeft"><!----><defs data-v-fde0c5aa=""><!----></defs><rect data-v-fde0c5aa="" fill="transparent" x="0" y="0" width="300px" height="300px" class="logo-background-square"></rect><defs data-v-fde0c5aa=""><!----></defs><g data-v-fde0c5aa="" id="04071f6f-8744-4cb6-8eb8-06f1fc22146b" fill="#000000" transform="matrix(4.134499016611281,0,0,4.134499016611281,103.17844906670237,128.23186298312143)"><path d="M3.09 10.50L0.56 10.50L0.69 10.37L0.69 2.80L0.56 2.67L3.09 2.67L2.97 2.80L2.97 10.37L3.09 10.50ZM0.48 1.04L0.48 1.04Q0.48 0.63 0.67 0.36Q0.87 0.10 1.16-0.04Q1.44-0.17 1.79-0.17Q2.13-0.17 2.42-0.04Q2.70 0.10 2.90 0.36Q3.09 0.63 3.09 1.04L3.09 1.04Q3.09 1.43 2.90 1.70Q2.70 1.97 2.42 2.10Q2.13 2.23 1.79 2.23Q1.44 2.24 1.16 2.10Q0.87 1.96 0.67 1.70Q0.48 1.44 0.48 1.04ZM10.56 10.70L6.52 6.06L6.52 10.36L6.65 10.49L4.26 10.49L4.38 10.36L4.38 0.07L4.52 0.07L8.55 5.28L8.55 0.29L8.41 0.17L10.82 0.17L10.68 0.29L10.68 10.70L10.56 10.70ZM14.88 4.20L14.88 4.20Q15.37 4.37 15.88 4.62Q16.38 4.87 16.78 5.25Q17.18 5.63 17.42 6.15Q17.67 6.66 17.64 7.38L17.64 7.38Q17.61 7.92 17.49 8.34Q17.37 8.76 17.19 9.08Q17.01 9.39 16.79 9.61Q16.58 9.83 16.38 9.97L16.38 9.97Q15.88 10.33 15.27 10.46Q14.66 10.58 14.04 10.54Q13.43 10.49 12.83 10.29Q12.24 10.09 11.76 9.81L11.76 9.81L12.45 7.62Q12.78 7.77 13.24 7.95Q13.71 8.12 14.15 8.18Q14.59 8.23 14.92 8.10Q15.26 7.97 15.37 7.48L15.37 7.48Q15.44 7.17 15.20 6.95Q14.95 6.73 14.55 6.52Q14.14 6.31 13.64 6.05Q13.15 5.80 12.73 5.42Q12.31 5.04 12.03 4.48Q11.76 3.92 11.79 3.11L11.79 3.11Q11.83 2.06 12.33 1.38Q12.84 0.70 13.62 0.39Q14.39 0.08 15.34 0.13Q16.28 0.18 17.21 0.59L17.21 0.59L16.48 2.60Q16.24 2.51 15.85 2.41Q15.46 2.32 15.08 2.35Q14.70 2.37 14.41 2.54Q14.11 2.72 14.06 3.15L14.06 3.15Q14 3.53 14.27 3.79Q14.53 4.05 14.88 4.20ZM25.26 0.17L25.12 0.31L25.12 7.73Q25.12 8.43 24.86 8.96Q24.61 9.49 24.18 9.85Q23.74 10.21 23.16 10.38Q22.58 10.56 21.94 10.56L21.94 10.56Q21.34 10.56 20.76 10.38Q20.17 10.21 19.73 9.85Q19.28 9.49 19.00 8.96Q18.72 8.43 18.72 7.73L18.72 7.73L18.72 0.29L18.70 0.31L18.58 0.17L21.18 0.17L21.04 0.31L21.04 0.29L21.04 7.73Q21.04 8.05 21.32 8.22Q21.59 8.39 21.92 8.39Q22.25 8.39 22.52 8.22Q22.79 8.06 22.79 7.73L22.79 7.73L22.79 0.29L22.79 0.31L22.65 0.17L25.26 0.17ZM26.63 2.44L26.52 2.44L26.63 2.44ZM26.52 2.44L26.63 2.44L27.55 3.05Q27.89 2.69 28.34 2.55Q28.80 2.41 29.25 2.41L29.25 2.41Q29.67 2.41 30.14 2.54Q30.60 2.67 31.21 3.09L31.21 3.09L31.78 3.58L30.53 5.29Q30.17 4.94 29.89 4.79Q29.61 4.65 29.39 4.63Q29.18 4.61 29.02 4.67Q28.87 4.73 28.76 4.80L28.76 4.80L28.76 10.37L28.88 10.50L26.39 10.50L26.52 10.37L26.52 2.44ZM34.40 7.83L34.40 7.83Q34.40 8.13 34.63 8.29Q34.86 8.46 35.13 8.46Q35.41 8.47 35.64 8.32Q35.88 8.18 35.90 7.87L35.90 7.87L37.93 7.87Q37.93 8.61 37.72 9.11Q37.52 9.62 37.16 9.94Q36.79 10.26 36.28 10.40Q35.77 10.54 35.14 10.54L35.14 10.54Q33.77 10.54 33.00 9.83Q32.23 9.11 32.23 7.84L32.23 7.84L32.23 5.14Q32.23 4.58 32.38 4.08Q32.52 3.58 32.87 3.21Q33.21 2.84 33.77 2.63Q34.34 2.41 35.17 2.41L35.17 2.41Q36.48 2.41 37.20 3.04Q37.91 3.68 37.91 5.00L37.91 5.00Q37.91 5.74 37.60 6.20Q37.28 6.65 36.78 6.95Q36.27 7.25 35.64 7.44Q35.01 7.63 34.40 7.83ZM35.84 5.03L35.84 5.03Q35.84 4.76 35.62 4.63Q35.39 4.49 35.12 4.49Q34.85 4.49 34.62 4.62Q34.40 4.75 34.40 4.98L34.40 4.98L34.40 5.77Q34.87 5.68 35.16 5.60Q35.45 5.52 35.60 5.43Q35.76 5.35 35.80 5.25Q35.84 5.15 35.84 5.03Z"></path></g><defs data-v-fde0c5aa=""><linearGradient data-v-fde0c5aa="" gradientTransform="rotate(25)" id="a2201a6e-5735-4279-abed-fdfabacd3ce5" x1="0%" y1="0%" x2="100%" y2="0%"><stop data-v-fde0c5aa="" offset="0%" stop-color="#08C7D6" stop-opacity="1"></stop><stop data-v-fde0c5aa="" offset="100%" stop-color="#02023E" stop-opacity="1"></stop></linearGradient></defs><g data-v-fde0c5aa="" id="89148a06-51c8-445e-a089-dbfa6eb371c5" stroke="none" fill="url(#a2201a6e-5735-4279-abed-fdfabacd3ce5)" transform="matrix(0.6892029005991837,0,0,0.6892029005991837,31.05207887823402,115.60429422134425)"><g clip-rule="evenodd"><path d="M12.983 10.59l17.018 88.223-5.872-59.049 29.021-1.892-.054-9.883L64.549 1 53.622 18.977z"></path><path d="M59.389 54.548l5.16-53.541-8.74 39.716-19.612 1.045 1.57 20.462-7.766 36.583 12.057-39.899z"></path><path d="M62.8 67.182l.549-10.453-15.979 3.755-.032 11.797-17.337 26.532 21.68-27.616zM65.711 62.394l14.841-4.731 1.509-12.532-15.899 2.095zM72.07 44.502l10.988-1.417 1.581-10.278-8.079-.373L64.549 1l8.43 30.967z"></path><path d="M87.413 31.294l1.256-9.506-9.544-2.694L64.549 1l14.483 22.437-.422 7z"></path></g></g><!----></svg>