<?xml version="1.0" encoding="UTF-8" standalone="no"?>
<!-- Created with Inkscape (http://www.inkscape.org/) -->

<svg
   width="251.5"
   height="302"
   viewBox="0 0 66.542706 79.90417"
   version="1.1"
   id="svg5"
   xml:space="preserve"
   xmlns="http://www.w3.org/2000/svg"
   xmlns:svg="http://www.w3.org/2000/svg"
   xmlns:rdf="http://www.w3.org/1999/02/22-rdf-syntax-ns#"
   xmlns:cc="http://creativecommons.org/ns#"
   xmlns:dc="http://purl.org/dc/elements/1.1/"><title
     id="title5090">North South University - নর্থ সাউথ বিশ্ববিদ্যালয়</title><defs
     id="defs2"><pattern
       id="EMFhbasepattern"
       patternUnits="userSpaceOnUse"
       width="6"
       height="6"
       x="0"
       y="0" /><pattern
       id="EMFhbasepattern-2"
       patternUnits="userSpaceOnUse"
       width="6"
       height="6"
       x="0"
       y="0" /><pattern
       id="EMFhbasepattern-29"
       patternUnits="userSpaceOnUse"
       width="6"
       height="6"
       x="0"
       y="0" /></defs><g
     id="layer1"
     transform="translate(-44.083295,2.2949511)"><g
       id="g4820"
       transform="matrix(0.62153373,0,0,0.62153373,6.7518706,-3.7835073)"><g
         id="g1671"
         style="display:inline"
         transform="translate(-2.802251e-4)"><g
           id="g1632"><path
             style="color:#000000;fill:#ffffff;fill-opacity:1;fill-rule:evenodd;stroke:none;stroke-width:1.05833;stroke-dasharray:none;stroke-opacity:1"
             d="m 113.59375,3.1425781 c -29.845002,4e-6 -52.68164,29.1916679 -52.681641,63.5332029 -2e-6,34.341539 22.836638,63.531249 52.681641,63.531249 29.84501,1e-5 52.6836,-29.18971 52.68359,-63.531249 0,-34.341541 -22.83858,-63.5332085 -52.68359,-63.5332029 z"
             id="path1573" /><g
             id="g1373"
             transform="translate(-0.21166195)"><g
               id="g8890"
               transform="translate(-1.2073471)"><path
                 id="rect8873"
                 style="opacity:1;fill:#211e53;fill-opacity:1;fill-rule:evenodd;stroke:none;stroke-width:0.24865;stroke-opacity:1;stop-color:#000000;stop-opacity:1"
                 d="m 67.883946,55.804786 c 0.55805,0.670049 1.208177,1.461932 2.488581,1.040248 0.08669,-0.02855 0.155469,0.01801 0.155469,0.109337 v 7.322841 a 0.18190104,0.18190104 135 0 1 -0.181901,0.181901 h -2.463932 a 0.18190104,0.18190104 45 0 1 -0.181901,-0.181901 v -8.40521 c 0,-0.157187 0.08309,-0.187996 0.183684,-0.06722 z" /><path
                 style="color:#000000;fill:#211e53;fill-opacity:1;stroke:none;stroke-opacity:1"
                 d="m 69.662109,49.822266 -0.144531,0.273437 c -0.339296,0.641911 -0.754888,1.233624 -1.107422,1.769531 -0.352534,0.535908 -0.650102,1.00882 -0.732422,1.462891 -0.09267,0.511142 0.03938,1.07189 0.355469,1.505859 0.316086,0.43397 0.836902,0.737991 1.476563,0.683594 1.028669,-0.08748 1.768525,-1.062217 1.6875,-2.390625 -0.06163,-1.010498 -0.680226,-2.191499 -1.347657,-3.060547 z m 0.05652,0.707198 c 0.505509,0.639866 1.035023,1.850296 1.082146,2.62288 0.07183,1.177559 -0.521949,1.900526 -1.324219,1.96875 -0.501572,0.04265 -0.871662,-0.179028 -1.121093,-0.521485 -0.249432,-0.342456 -0.358265,-0.808679 -0.28711,-1.201172 0.05936,-0.327409 0.326196,-0.785997 0.673828,-1.314453 0.285073,-0.433355 0.668688,-1.024999 0.976448,-1.55452 z"
                 id="path8878" /></g><g
               id="g8949"
               transform="matrix(-1,0,0,1,228.82012,0)"><path
                 id="path8945"
                 style="opacity:1;fill:#211e53;fill-opacity:1;fill-rule:evenodd;stroke:none;stroke-width:0.24865;stroke-opacity:1;stop-color:#000000;stop-opacity:1"
                 d="m 67.883946,55.804786 c 0.55805,0.670049 1.208177,1.461932 2.488581,1.040248 0.08669,-0.02855 0.155469,0.01801 0.155469,0.109337 v 7.322841 a 0.18190104,0.18190104 135 0 1 -0.181901,0.181901 h -2.463932 a 0.18190104,0.18190104 45 0 1 -0.181901,-0.181901 v -8.40521 c 0,-0.157187 0.08309,-0.187996 0.183684,-0.06722 z" /><path
                 style="color:#000000;fill:#211e53;fill-opacity:1;stroke:none;stroke-opacity:1"
                 d="m 69.662109,49.822266 -0.144531,0.273437 c -0.339296,0.641911 -0.754888,1.233624 -1.107422,1.769531 -0.352534,0.535908 -0.650102,1.00882 -0.732422,1.462891 -0.09267,0.511142 0.03938,1.07189 0.355469,1.505859 0.316086,0.43397 0.836902,0.737991 1.476563,0.683594 1.028669,-0.08748 1.768525,-1.062217 1.6875,-2.390625 -0.06163,-1.010498 -0.680226,-2.191499 -1.347657,-3.060547 z m 0.05652,0.707198 c 0.505509,0.639866 1.035023,1.850296 1.082146,2.62288 0.07183,1.177559 -0.521949,1.900526 -1.324219,1.96875 -0.501572,0.04265 -0.871662,-0.179028 -1.121093,-0.521485 -0.249432,-0.342456 -0.358265,-0.808679 -0.28711,-1.201172 0.05936,-0.327409 0.326196,-0.785997 0.673828,-1.314453 0.285073,-0.433355 0.668688,-1.024999 0.976448,-1.55452 z"
                 id="path8947" /></g></g><path
             id="path1218"
             style="font-weight:normal;font-size:10.7156px;line-height:127.922%;font-family:'Heisei Mincho Std W9';-inkscape-font-specification:'Heisei Mincho Std W9';letter-spacing:1.05304px;word-spacing:0px;fill:#000000;fill-opacity:1;stroke-width:0.264583"
             d="m 155.90108,70.777075 -0.20619,1.842265 0.46819,0.05219 c 0.0608,-0.543101 0.19127,-0.550195 0.72347,-0.199471 l 2.19986,1.443323 -0.004,0.03204 -2.466,1.028361 c -0.59898,0.245622 -0.73129,0.177157 -0.66094,-0.451135 l -0.46871,-0.05271 -0.32556,2.907316 0.46871,0.05219 c 0.0429,-0.383365 0.16509,-0.509737 0.7984,-0.773079 l 3.28662,-1.421619 1.95905,0.219108 c 0.75609,0.08466 0.85436,0.171068 0.76016,1.012341 l 0.46871,0.05271 0.3731,-3.333129 -0.4687,-0.05271 c -0.093,0.830625 -0.20749,0.89324 -0.95292,0.809769 l -1.98075,-0.221692 -2.97088,-2.068607 c -0.50264,-0.325848 -0.57452,-0.452556 -0.53279,-0.825273 z m -84.534377,1.247986 -0.467155,0.06253 c 0.09541,0.711578 0.03243,0.806978 -0.732255,0.909505 l -4.906677,0.657841 c -0.743438,0.09968 -0.860997,0.02865 -0.954981,-0.67231 l -0.467155,0.06253 0.29714,2.220019 0.467672,-0.06253 c -0.09541,-0.711578 7.02e-4,-0.800524 0.74414,-0.900204 l 4.832263,-0.648022 0.0031,0.0217 -5.758822,4.544942 0.132292,0.988053 6.319511,-0.847493 c 0.743438,-0.09968 0.863982,-0.0076 0.950846,0.640271 l 0.467155,-0.06253 -0.296106,-2.209167 -0.467155,0.06253 c 0.09541,0.711577 0.0019,0.821195 -0.741556,0.920874 l -4.322734,0.57981 -0.0026,-0.02119 5.199166,-4.037997 z m 83.654327,6.085416 -1.28158,5.752621 1.80609,0.665592 0.12558,-0.564823 c -1.1748,-0.492255 -1.21415,-0.610863 -1.07901,-1.217497 l 0.19792,-0.888834 5.55367,1.237133 c 0.73214,0.1631 0.82306,0.249255 0.632,1.10691 l 0.44959,0.100252 0.74104,-3.326412 -0.44959,-0.09974 c -0.19106,0.857654 -0.30964,0.896907 -1.04179,0.733806 l -5.55419,-1.237134 0.19586,-0.878499 c 0.13514,-0.606635 0.21059,-0.69958 1.49603,-0.654741 l 0.12609,-0.564823 z m -84.773638,2.485637 c -0.443774,0.0053 -0.927514,0.07423 -1.448491,0.210323 -1.378905,0.360194 -2.233033,0.948755 -2.680456,1.652612 -0.48077,0.745794 -0.544066,1.648369 -0.275953,2.674772 l 0.0026,0.01034 c 0.276239,1.057506 0.77292,1.813931 1.557011,2.229321 0.734495,0.39512 1.767157,0.490935 3.146061,0.130741 1.389274,-0.362901 2.315685,-1.014623 2.759005,-1.861385 0.377092,-0.718711 0.420225,-1.571727 0.181901,-2.484086 -0.238324,-0.912358 -0.693146,-1.635437 -1.373559,-2.077909 -0.500504,-0.326109 -1.128481,-0.49363 -1.868103,-0.484725 z m 0.873848,1.431954 c 0.384749,8.52e-4 0.690908,0.05904 0.941028,0.163297 0.488295,0.215778 0.785836,0.591722 0.913122,1.079004 l 0.0026,0.01033 c 0.129995,0.49765 0.05477,0.971862 -0.265617,1.398882 -0.382126,0.487448 -1.137058,0.905773 -2.567802,1.279508 -1.161183,0.303321 -2.139828,0.370923 -2.817915,0.149345 -0.469804,-0.187383 -0.835466,-0.568337 -0.973584,-1.097091 -0.13812,-0.528753 -0.0055,-1.039262 0.312642,-1.43247 0.483096,-0.524898 1.369929,-0.945181 2.531112,-1.248503 0.804793,-0.210226 1.429753,-0.303403 1.92443,-0.302307 z m 82.29782,2.799829 -1.00769,3.154329 0.44958,0.143661 c 0.25431,-0.796189 0.37585,-0.825085 1.09038,-0.596863 l 4.70565,1.503267 c 0.71453,0.228223 0.79691,0.322089 0.5426,1.118278 l 0.44907,0.143144 1.01079,-3.164148 -0.44906,-0.14366 c -0.2543,0.796189 -0.37585,0.825084 -1.09038,0.596862 L 154.41435,86.0795 c -0.71453,-0.228222 -0.79726,-0.321961 -0.54622,-1.107943 z m -78.914564,2.562117 -0.438216,0.174667 c 0.28177,0.706705 0.210096,0.815837 -0.496611,1.097607 l -4.568713,1.821594 c -0.706706,0.281769 -0.833924,0.251953 -1.115694,-0.454752 l -0.438216,0.174666 1.150834,2.886129 0.438216,-0.17415 c -0.257958,-0.646984 -0.198345,-0.72867 0.518315,-1.014408 l 1.931148,-0.769979 0.226343,0.567407 -2.48667,2.96416 0.722436,1.811259 0.4377,-0.174666 c -0.1389,-0.348376 -0.15049,-0.551289 0.303857,-1.147734 l 1.731677,-2.22467 c 0.301934,0.467948 0.703186,0.780787 1.095024,0.924491 0.467433,0.159707 0.961192,0.124822 1.379244,-0.04186 0.656937,-0.261927 0.993936,-0.719527 1.121895,-1.26659 0.14201,-0.656488 0.01927,-1.311094 -0.37362,-2.2965 z m 77.489324,2.198316 c -0.32321,0.329622 -0.67297,0.83405 -0.94103,1.476912 -0.31342,0.751655 -0.35652,1.383468 -0.22065,1.892908 0.14904,0.561372 0.53326,0.977197 1.03766,1.187524 0.39561,0.164963 0.79126,0.190728 1.1622,0.136426 0.55889,-0.115247 1.12053,-0.543047 1.78336,-0.963249 0.5532,-0.407866 0.93661,-0.631024 1.3224,-0.748791 0.3116,-0.07905 0.58172,-0.05912 0.88831,0.06873 0.34616,0.144341 0.56945,0.388326 0.67076,0.674377 0.1112,0.290176 0.0963,0.632222 -0.0398,0.958598 -0.31756,0.761545 -0.81779,1.098356 -2.158,0.887801 l -0.0868,0.625802 c 0.51433,0.07515 1.06002,0.186146 1.72186,0.380855 0.37434,-0.424401 0.77062,-1.01351 1.03043,-1.636593 0.37942,-0.909898 0.37071,-1.668091 0.14831,-2.248441 -0.20346,-0.514404 -0.60554,-0.914163 -1.11983,-1.128614 -0.49451,-0.206203 -0.94606,-0.208767 -1.38131,-0.111621 -0.50367,0.149882 -0.92991,0.447991 -1.76424,1.028878 -0.64882,0.414436 -0.95235,0.612749 -1.28209,0.70745 -0.27368,0.07164 -0.50589,0.04474 -0.72347,-0.04599 -0.24726,-0.1031 -0.42192,-0.268764 -0.51418,-0.492993 -0.0997,-0.262147 -0.10303,-0.588669 0.0413,-0.934826 0.3423,-0.820887 0.77144,-0.932338 1.89239,-0.697115 l 0.1323,-0.594796 c -0.64454,-0.152666 -1.2216,-0.30031 -1.59991,-0.42323 z M 74.758227,89.871 c 0.098,-1.4e-4 0.145047,0.05348 0.190686,0.167948 l 0.171049,0.427881 c 0.186524,0.46782 0.18615,0.814027 0.06046,1.106393 -0.139672,0.344085 -0.450494,0.606564 -0.8785,0.777213 -0.537494,0.214304 -0.933365,0.233399 -1.303279,0.05788 -0.34207,-0.163548 -0.588788,-0.491677 -0.779281,-0.96945 l -0.206189,-0.517798 2.249475,-0.897103 c 0.248841,-0.09921 0.397578,-0.152822 0.495577,-0.152962 z m 2.498039,4.263822 -1.79679,0.689881 0.277503,0.507462 c 1.207884,-0.404322 1.316075,-0.341117 1.614372,0.204122 l 0.437182,0.798918 -4.991943,2.731099 c -0.658048,0.360015 -0.782847,0.355377 -1.204578,-0.415478 l -0.404109,0.220658 1.635559,2.989486 0.404109,-0.22118 c -0.42173,-0.77086 -0.358841,-0.87866 0.299207,-1.23868 l 4.991943,-2.730586 0.432015,0.789616 c 0.298297,0.545239 0.302637,0.664766 -0.693497,1.478462 l 0.278019,0.507458 1.549776,-1.141011 z m 73.275634,1.271757 c -0.28217,-0.0058 -0.55036,0.06179 -0.80306,0.184485 -0.59921,0.303444 -1.03018,0.811318 -1.5477,1.737362 l -1.50017,2.684594 0.41134,0.22996 c 0.37116,-0.664135 0.50118,-0.677082 1.16531,-0.305928 l 4.29379,2.399338 c 0.66413,0.37116 0.72101,0.48877 0.34985,1.1529 l 0.41135,0.23048 1.51618,-2.71302 -0.41134,-0.22996 c -0.33979,0.60801 -0.44118,0.61306 -1.11466,0.23668 l -1.81436,-1.014406 0.29765,-0.532784 3.8685,0.06253 0.95136,-1.702221 -0.41134,-0.229961 c -0.18296,0.327389 -0.33319,0.464217 -1.08262,0.487309 l -2.81843,0.05736 c 0.17307,-0.529328 0.16278,-1.038187 0.0274,-1.432987 -0.17057,-0.463583 -0.50889,-0.824309 -0.90175,-1.043864 -0.30868,-0.172509 -0.60511,-0.252081 -0.88728,-0.257866 z m -0.6842,1.396814 c 0.26043,0.0023 0.53582,0.08679 0.81235,0.241329 0.50511,0.282286 0.76979,0.577308 0.86662,0.975134 0.0886,0.368665 -0.0116,0.766955 -0.26252,1.215947 l -0.27182,0.486275 -2.11356,-1.181323 c -0.4677,-0.261376 -0.5414,-0.326944 -0.42117,-0.542086 l 0.2248,-0.402559 c 0.24569,-0.439637 0.5144,-0.657485 0.82062,-0.744141 0.11099,-0.03387 0.2263,-0.04962 0.34468,-0.04858 z m -69.438138,3.141411 -0.378272,0.281636 c 0.454164,0.61037 0.413164,0.73459 -0.188619,1.18236 l -3.963065,2.94865 c -0.601783,0.44776 -0.732843,0.45174 -1.187008,-0.15864 l -0.378271,0.28163 1.816943,2.4412 0.378272,-0.28112 c -0.371008,-0.49862 -0.332408,-0.60786 0.252181,-1.04283 l 1.900142,-1.41387 1.720825,2.31252 -1.900142,1.41387 c -0.584589,0.43497 -0.700245,0.44078 -1.071253,-0.0579 l -0.378271,0.28164 1.816426,2.44171 0.378272,-0.28164 c -0.454165,-0.61038 -0.412647,-0.73458 0.189136,-1.18235 l 3.963065,-2.94866 c 0.601782,-0.44777 0.732328,-0.45173 1.186491,0.15865 l 0.378272,-0.28164 -1.816427,-2.4412 -0.378271,0.28112 c 0.371006,0.49862 0.331889,0.60786 -0.252698,1.04283 l -1.65933,1.23455 -1.720309,-2.31252 1.658814,-1.23455 c 0.584587,-0.43498 0.700762,-0.44079 1.071769,0.0579 l 0.378271,-0.28164 z m 65.555688,1.082106 -3.04581,4.11809 0.37931,0.28061 c 0.43967,-0.59445 0.58291,-0.60831 1.18597,-0.16227 l 3.97185,2.93729 c 0.60306,0.44604 0.63828,0.57877 0.19224,1.18184 l 0.37879,0.2806 3.19877,-4.32531 -1.26091,-1.35858 -0.36948,0.49971 c 0.77113,0.90356 0.77247,1.06389 0.42839,1.52911 l -0.87953,1.18907 c -0.12107,0.16369 -0.2066,0.20718 -0.5426,-0.0413 l -2.11047,-1.56114 0.61185,-0.82683 c 0.27399,-0.37045 0.39389,-0.38881 1.18649,0.19741 l 0.35037,-0.47387 -2.14509,-1.58647 -0.35088,0.47387 c 0.71507,0.52887 0.76371,0.69805 0.49609,1.05989 l -0.60565,0.81803 -1.87792,-1.38906 c -0.31877,-0.23576 -0.35979,-0.30602 -0.16226,-0.57309 l 0.68781,-0.93018 c 0.33771,-0.4566 0.4597,-0.5135 1.51722,-0.0512 l 0.36949,-0.49971 z m -3.29747,4.49378 -1.29605,1.32602 0.33745,0.32918 c 0.36699,-0.37551 0.53335,-0.39214 0.87385,0.22531 l 2.35386,4.36769 -0.0227,0.0233 -4.51083,-2.1916 c -0.54098,-0.25901 -0.62665,-0.4471 -0.22221,-0.86092 l -0.33745,-0.3297 -1.96215,2.00763 0.33744,0.32969 c 0.31457,-0.32185 0.44349,-0.31553 1.04542,-0.0269 l 6.27765,2.94349 0.71158,-0.7276 -3.28403,-6.20634 c -0.24,-0.44433 -0.22701,-0.61131 0.0351,-0.87953 z m -54.627159,4.22197 c -0.535627,-6.3e-4 -1.008971,0.23 -1.344104,0.61753 -0.280374,0.32421 -0.428606,0.69211 -0.492994,1.06143 -0.06526,0.56691 0.165685,1.23373 0.357601,1.99471 0.214475,0.65298 0.306404,1.08707 0.297657,1.49035 -0.02233,0.32069 -0.125326,0.57143 -0.342615,0.82269 -0.245327,0.28368 -0.547209,0.41953 -0.850594,0.42633 -0.310395,0.0149 -0.630667,-0.10614 -0.898137,-0.33745 -0.624095,-0.53972 -0.787457,-1.12081 -0.168465,-2.32802 l -0.567407,-0.27802 c -0.232177,0.46506 -0.508343,0.9489 -0.900203,1.5167 0.286097,0.48825 0.721859,1.04928 1.232483,1.49087 0.745673,0.64486 1.468488,0.87317 2.089278,0.84336 0.552225,-0.0324 1.05765,-0.28909 1.422135,-0.71055 0.350467,-0.40526 0.494158,-0.83364 0.537952,-1.27744 0.0151,-0.52528 -0.134878,-1.02371 -0.425814,-1.99781 -0.190821,-0.74586 -0.284431,-1.09587 -0.271301,-1.43868 0.01751,-0.28236 0.116063,-0.49451 0.270267,-0.67282 0.175233,-0.20263 0.387071,-0.31682 0.628903,-0.33435 0.280165,-0.0127 0.591202,0.0864 0.874882,0.33176 0.672726,0.58177 0.644156,1.02415 0.07028,2.01538 l 0.523999,0.31161 c 0.346517,-0.56451 0.667241,-1.06659 0.90227,-1.38751 -0.212056,-0.41006 -0.581626,-0.89986 -1.108459,-1.35547 -0.615991,-0.53271 -1.203231,-0.77129 -1.729611,-0.8015 -0.03624,-0.002 -0.07229,-0.003 -0.108003,-0.003 z m 49.391819,0.93947 -2.59313,2.05931 0.29301,0.36897 c 0.6546,-0.51971 0.77176,-0.47584 1.23817,0.11162 l 3.07164,3.86901 c 0.46641,0.58745 0.48251,0.71123 -0.17208,1.23094 l 0.29352,0.36948 2.6014,-2.0655 -0.29301,-0.36949 c -0.65459,0.51971 -0.77177,0.47584 -1.23817,-0.11162 l -3.07164,-3.86902 c -0.4664,-0.58746 -0.48239,-0.71117 0.16381,-1.22421 z m -3.02876,2.52336 -1.92443,1.12448 0.23771,0.4067 c 0.61996,-0.36206 0.75705,-0.31803 1.13533,0.32969 l 2.19935,3.76618 -0.0181,0.0109 -5.72885,-3.24373 -1.92495,1.12396 0.23771,0.40721 c 0.61996,-0.36207 0.73229,-0.34066 1.12138,0.32557 l 2.49649,4.27519 c 0.37827,0.64773 0.35801,0.78332 -0.2527,1.13998 l 0.23771,0.40721 1.93425,-1.12965 -0.23771,-0.40669 c -0.61996,0.36206 -0.73896,0.30718 -1.11724,-0.34055 l -2.45877,-4.21008 0.0186,-0.0109 6.41202,3.56412 0.86093,-0.50281 -3.21531,-5.5056 c -0.37827,-0.64772 -0.34017,-0.79433 0.22427,-1.12397 z m -41.274998,0.52038 c -0.176814,-8.8e-4 -0.352592,0.0143 -0.527099,0.047 -0.939602,0.17518 -1.834716,0.86933 -2.589506,2.09083 -0.749158,1.21239 -0.960983,2.22768 -0.798918,3.04581 0.16688,0.8715 0.743958,1.56832 1.646411,2.12597 l 0.0093,0.006 c 0.929801,0.57454 1.810875,0.77909 2.664953,0.53847 0.804199,-0.22106 1.617624,-0.86449 2.366781,-2.07688 0.75479,-1.2215 0.975254,-2.33278 0.711584,-3.25148 -0.223207,-0.78034 -0.780667,-1.4272 -1.582849,-1.92288 -0.626704,-0.38725 -1.269179,-0.59939 -1.900659,-0.60255 z m 0.752926,0.786 c 0.299478,-0.001 0.585404,0.0867 0.853178,0.25218 l 0.0093,0.006 c 0.437553,0.27037 0.710171,0.66514 0.77308,1.19527 0.05994,0.61647 -0.197296,1.44006 -0.974618,2.69803 -0.630869,1.02096 -1.292716,1.74592 -1.936316,2.05362 -0.469284,0.18868 -0.99651,0.16532 -1.461409,-0.12195 -0.464901,-0.28727 -0.72155,-0.74853 -0.762744,-1.25264 -0.01273,-0.71326 0.339097,-1.62953 0.969966,-2.65049 0.777322,-1.25796 1.398984,-1.85625 1.977141,-2.07842 0.188349,-0.0678 0.372734,-0.1005 0.552421,-0.10129 z m 4.349605,1.93632 -0.166398,0.44132 c 0.64175,0.24182 0.663944,0.36468 0.399459,1.0666 l -1.299662,3.4494 c -0.366501,0.97266 -0.444271,1.66489 -0.111622,2.27118 0.291378,0.53348 0.892679,0.94339 1.775086,1.27589 0.83227,0.3136 1.480834,0.29433 2.002974,0.0331 0.56357,-0.28005 0.96714,-0.80338 1.2883,-1.65571 l 1.31878,-3.49953 c 0.26448,-0.70191 0.37216,-0.77586 0.96377,-0.55294 l 0.16639,-0.44131 -1.95543,-0.73691 -0.1664,0.44132 c 0.58159,0.21915 0.64204,0.33326 0.37,1.05523 l -1.29242,3.42977 c -0.23425,0.62169 -0.49569,1.07268 -0.88109,1.30534 -0.38671,0.26653 -0.864657,0.25824 -1.305861,0.092 -0.511395,-0.1927 -0.795893,-0.47151 -0.906922,-0.84543 -0.168578,-0.46431 -0.0559,-1.00589 0.201022,-1.68775 l 1.276924,-3.38946 c 0.272047,-0.72197 0.352397,-0.78358 0.974097,-0.54932 l 0.1664,-0.4408 z m 29.967167,0.36277 -1.97249,0.68936 0.15554,0.44494 c 0.58672,-0.20502 0.70565,-0.15577 0.96015,0.57257 l 1.20923,3.45974 c 0.21916,0.62718 0.30759,1.1411 0.16123,1.56683 -0.12564,0.45254 -0.49748,0.75242 -0.94258,0.90795 -0.5159,0.18027 -0.91259,0.14896 -1.23765,-0.0667 -0.42719,-0.24801 -0.68825,-0.73582 -0.92862,-1.42369 l -1.19528,-3.41891 c -0.2545,-0.72833 -0.23185,-0.82678 0.39532,-1.04593 l -0.15554,-0.44545 -2.84272,0.99322 0.15554,0.44545 c 0.64741,-0.22623 0.74372,-0.14638 0.99116,0.56172 l 1.21594,3.47989 c 0.34288,0.98123 0.72737,1.56168 1.3715,1.81333 0.56577,0.22229 1.29004,0.15087 2.18023,-0.1602 0.8396,-0.29339 1.32463,-0.72393 1.55752,-1.25935 0.25264,-0.57637 0.22606,-1.23668 -0.0744,-2.09651 l -1.23352,-3.53054 c -0.24743,-0.70811 -0.21184,-0.83376 0.38499,-1.04231 z m -23.37015,2.06034 -0.57671,1.83606 0.57051,0.0982 c 0.43423,-1.19745 0.55072,-1.24273 1.16323,-1.1374 l 0.89762,0.15451 -0.96428,5.60741 c -0.12712,0.73924 -0.2089,0.83414 -1.07487,0.68523 l -0.078,0.45423 3.35845,0.57723 0.078,-0.45372 c -0.86597,-0.14891 -0.91104,-0.26587 -0.78393,-1.00511 l 0.96428,-5.6074 0.88677,0.15244 c 0.61252,0.10533 0.70904,0.17635 0.72709,1.46244 l 0.5705,0.0982 0.0698,-1.9234 z m 13.64619,0.86403 -3.04167,0.0956 0.015,0.47129 c 0.6212,-0.0195 0.68823,0.0747 0.71107,0.80305 l 0.0651,2.06706 -2.88147,0.0904 -0.0646,-2.06706 c -0.0228,-0.7283 0.0382,-0.82646 0.65939,-0.84594 l -0.0145,-0.47129 -3.04167,0.0951 0.0145,0.47128 c 0.76043,-0.0238 0.83896,0.0807 0.86248,0.83044 l 0.15503,4.93769 c 0.0235,0.74973 -0.0483,0.8593 -0.80874,0.88315 l 0.015,0.47129 3.04167,-0.0956 -0.015,-0.47129 c -0.62119,0.0195 -0.68822,-0.0748 -0.71106,-0.80306 l -0.0744,-2.36678 2.88096,-0.0904 0.0744,2.36678 c 0.0228,0.7283 -0.0387,0.82646 -0.65991,0.84594 l 0.015,0.47129 3.04167,-0.0951 -0.015,-0.47129 c -0.76044,0.0238 -0.83845,-0.0807 -0.86196,-0.83044 l -0.15503,-4.93768 c -0.0235,-0.74972 0.0483,-0.8593 0.80874,-0.88315 z" /><path
             id="path1176"
             style="font-size:10.6627px;line-height:125%;font-family:'Heisei Mincho Std W9';letter-spacing:0.433917px;word-spacing:0px;fill:#000000;fill-opacity:1;stroke-width:0.264583"
             d="m 113.46594,5.7128296 c -0.93831,0.00301 -1.74816,0.2614749 -2.34352,0.8071858 -0.70168,0.6420169 -1.09237,1.6991815 -1.08779,3.1279745 0.005,1.4181301 0.35949,2.3871421 0.92656,2.9930991 0.59918,0.648504 1.45277,0.933564 2.50837,0.930176 h 0.0109 c 1.08759,-0.0035 1.93971,-0.29386 2.53473,-0.946196 0.56317,-0.609584 0.91199,-1.581169 0.90744,-2.9993 -0.005,-1.428793 -0.40267,-2.4832406 -1.10846,-3.1207397 -0.59885,-0.5418778 -1.40987,-0.7952115 -2.34818,-0.7921997 z m 6.57945,0.3462321 -0.12765,0.451652 c 0.36933,0.1046173 0.43701,0.2568101 0.44287,0.901237 l 0.015,6.7530763 1.15962,0.328662 2.95486,-4.9149455 0.0202,0.00568 -0.0207,5.7459025 1.11828,0.316777 3.44165,-5.9293543 c 0.27286,-0.4546555 0.39879,-0.5074381 0.72708,-0.414445 l 0.12765,-0.451652 -1.64125,-0.4645712 -0.12764,0.4511353 c 0.50269,0.1423957 0.51178,0.2669511 0.19379,0.8418091 l -2.44378,4.2834601 -0.0207,-0.0057 0.0108,-5.0058961 c 0.006,-0.6078377 0.10533,-0.7240109 0.64906,-0.569991 l 0.12764,-0.4511353 -2.55437,-0.7239868 -0.12816,0.451652 c 0.35906,0.1017113 0.47228,0.2113964 0.49196,0.4940267 l 0.0124,0.1917196 -2.67168,4.4627769 -0.0207,-0.0057 0.0548,-5.0048631 c 0.006,-0.6078378 0.0919,-0.7162595 0.63562,-0.5622396 l 0.12764,-0.451652 z m -6.59909,0.1762166 h 0.0109 c 0.5118,-0.00164 0.94919,0.1887989 1.28106,0.6035807 0.37477,0.4892833 0.59058,1.3206342 0.59531,2.7920777 0.004,1.1942153 -0.1741,2.1544643 -0.55604,2.7528033 -0.29726,0.406139 -0.75484,0.663331 -1.29863,0.665076 -0.5438,0.0017 -1.00342,-0.252586 -1.30328,-0.656808 -0.38577,-0.595875 -0.56978,-1.554971 -0.57361,-2.7491858 -0.005,-1.4714435 0.20561,-2.3040159 0.57723,-2.7956949 0.32921,-0.4169037 0.76597,-0.6102405 1.2671,-0.611849 z m -6.45025,0.014469 -2.15335,0.530717 0.11213,0.4552693 c 0.69368,-0.1708441 0.81215,-0.090144 0.99064,0.6345866 l 1.03818,4.2136968 -0.0207,0.0052 -4.55321,-4.7097909 -2.15387,0.5302002 0.11213,0.4557861 c 0.69367,-0.1708442 0.79464,-0.1186026 0.97824,0.6268352 l 1.17822,4.7831714 c 0.17849,0.724731 0.12108,0.848698 -0.56224,1.016992 l 0.11214,0.455269 2.16369,-0.532784 -0.11214,-0.455786 c -0.69367,0.170844 -0.79146,0.08549 -0.96996,-0.639238 l -1.16014,-4.7108235 0.0207,-0.00517 5.11493,5.2079505 0.96274,-0.236678 -1.51722,-6.1603472 c -0.17849,-0.7247313 -0.10032,-0.8536961 0.53123,-1.0092408 z m -9.588042,2.7770915 -2.015381,0.9999392 0.208772,0.42013 c 0.573117,-0.28431 0.591196,-0.0073 0.445968,0.683679 l -0.628902,2.906799 -0.01912,0.0093 -1.009758,-2.034501 C 94.057893,11.34355 94.063216,11.21017 94.626782,10.930599 l -0.208256,-0.420129 -2.722315,1.350305 0.208256,0.420129 c 0.678189,-0.336433 0.792786,-0.273828 1.12448,0.394808 l 2.184362,4.403349 c 0.331695,0.668636 0.311803,0.797348 -0.366385,1.133781 l 0.208772,0.420129 2.741435,-1.360124 -0.208773,-0.420129 c -0.573116,0.28431 -0.692015,0.212333 -1.02371,-0.456303 l -0.743624,-1.49965 0.188619,-0.914673 3.449402,2.466516 1.786455,-0.88625 -0.20877,-0.42013 c -0.39163,0.194278 -0.55343,0.17964 -1.262459,-0.289905 l -3.331062,-2.299601 0.517281,-2.220536 c 0.130562,-0.576581 0.302869,-0.7093767 0.65629,-0.8847007 z m 34.860922,1.1430832 -0.23151,0.408244 c 0.6402,0.362546 0.67114,0.50291 0.30334,1.152384 l -2.41691,4.267957 c -0.37306,0.658753 -0.49981,0.709381 -1.14928,0.341581 l -0.231,0.408244 4.6669,2.642732 1.25729,-1.505851 -0.53847,-0.304891 c -0.86124,0.958217 -1.0158,0.993166 -1.56321,0.683163 l -1.21543,-0.68833 c -0.22268,-0.126103 -0.26654,-0.199896 -0.0563,-0.571025 l 2.54817,-4.499984 c 0.38882,-0.686587 0.48285,-0.743835 1.16944,-0.355017 l 0.23099,-0.408244 z m 6.76083,4.059184 -0.29456,0.365352 c 0.57291,0.461599 0.58093,0.604767 0.11266,1.185974 l -3.08405,3.827673 c -0.46829,0.581208 -0.60167,0.610915 -1.18288,0.142627 l -0.29404,0.365353 4.16771,3.358451 1.40301,-1.197343 -0.48162,-0.38809 c -0.93008,0.729474 -1.08953,0.723503 -1.53789,0.362252 l -1.14619,-0.922941 c -0.15776,-0.127107 -0.19735,-0.213619 0.0636,-0.537435 l 1.63917,-2.034501 0.79685,0.642338 c 0.35703,0.287663 0.37001,0.407632 -0.24546,1.171505 l 0.45682,0.367936 1.66553,-2.067574 -0.4563,-0.367936 c -0.55526,0.689145 -0.72562,0.73004 -1.07435,0.449068 l -0.78859,-0.635104 1.45831,-1.810225 c 0.24753,-0.30721 0.31931,-0.345361 0.57671,-0.137976 l 0.89659,0.722436 c 0.44005,0.354561 0.49126,0.478136 -0.0119,1.510503 l 0.48163,0.38809 0.84801,-1.562696 z m -52.93269,1.550809 -1.673283,1.504301 0.314193,0.349333 c 0.475687,-0.427804 0.567171,-0.166643 0.612882,0.537952 l 0.175183,2.969327 -0.01602,0.01395 -1.518771,-1.688786 c -0.499104,-0.554968 -0.529768,-0.684685 -0.06201,-1.105359 l -0.313676,-0.348816 -2.259811,2.031918 0.313676,0.348816 c 0.562897,-0.506235 0.689971,-0.476942 1.189075,0.07803 l 3.286621,3.655074 c 0.499105,0.554969 0.515356,0.683874 -0.04754,1.190108 L 86.411263,25.6651 88.686576,23.618713 88.3729,23.269897 c -0.475686,0.427804 -0.609872,0.390121 -1.108976,-0.164847 l -1.119312,-1.244369 -0.06408,-0.932243 3.985286,1.449524 1.482597,-1.333252 -0.313676,-0.348816 c -0.325053,0.292333 -0.485395,0.321267 -1.294495,0.05943 l -3.825606,-1.319816 -0.09819,-2.277897 c -0.02911,-0.590461 0.10095,-0.765066 0.394291,-1.028878 z m 58.98813,3.518649 -0.34882,0.313159 c 0.51992,0.57926 0.48307,0.698263 -0.0723,1.196826 l -3.65818,3.28352 c -0.55545,0.498562 -0.67741,0.521904 -1.19734,-0.05736 l -0.34882,0.313159 2.01539,2.245858 c 1.0256,1.142652 1.86702,1.50532 2.75073,1.500166 0.90751,-0.02652 1.81623,-0.498412 2.67322,-1.267623 0.87286,-0.783454 1.3885,-1.661998 1.45314,-2.579687 0.0463,-0.858271 -0.28227,-1.623561 -1.10845,-2.544031 z m 1.17977,2.224153 c 0.0798,0.0013 0.14942,0.05435 0.23978,0.15503 l 0.32763,0.365352 c 0.42022,0.468169 0.57395,0.974541 0.42892,1.563212 -0.16578,0.69326 -0.65489,1.361522 -1.51981,2.137854 -0.79351,0.712231 -1.4936,1.09718 -2.14044,1.190625 -0.67697,0.09182 -1.2379,-0.149846 -1.67948,-0.641821 l -0.22789,-0.253732 c -0.22791,-0.253922 -0.19976,-0.350346 0.23667,-0.742073 l 3.91191,-3.511414 c 0.20086,-0.180283 0.32007,-0.264691 0.42271,-0.263033 z m -66.735974,0.576709 -3.221509,3.94963 0.363802,0.296623 c 0.465031,-0.570122 0.608106,-0.577192 1.186491,-0.10542 l 3.80907,3.106787 c 0.578383,0.47177 0.607163,0.605522 0.135392,1.183907 l 0.363285,0.296623 3.383256,-4.148068 -1.188558,-1.410249 -0.39119,0.479557 c 0.723873,0.93444 0.717404,1.094292 0.353466,1.540474 l -0.930175,1.139982 c -0.128052,0.15699 -0.214676,0.196181 -0.536919,-0.06666 l -2.024682,-1.651062 0.646989,-0.793233 c 0.289802,-0.355294 0.409792,-0.367344 1.169954,0.252697 l 0.371037,-0.454752 -2.057756,-1.677934 -0.37052,0.454236 c 0.685799,0.559384 0.72593,0.729906 0.442867,1.076937 l -0.640271,0.784965 -1.80144,-1.469678 C 78.285868,24.635421 78.2483,24.563702 78.457226,24.30756 l 0.728121,-0.892452 c 0.357198,-0.437919 0.48066,-0.488163 1.509986,0.02119 l 0.39119,-0.479557 z m 70.780174,5.495272 c -0.74302,0.01259 -1.5552,0.266636 -2.3704,0.798401 -1.18777,0.774797 -1.81521,1.667422 -2.01279,2.496488 -0.18592,0.846926 0.0513,1.697952 0.51159,2.403471 0.30876,0.473324 0.70103,0.841113 1.08004,1.090373 0.3996,0.261297 0.76772,0.41576 1.06867,0.486792 l 1.10742,-0.722437 c 0.4108,-0.267974 0.46695,-0.240713 0.75241,0.196888 l 0.39274,-0.256316 -1.45055,-2.223636 -0.39274,0.256315 c 0.36118,0.553698 0.32471,0.653789 -0.19327,0.99167 l -0.93845,0.611849 c -0.15338,-0.03998 -0.30034,-0.10925 -0.44131,-0.208256 -0.16155,-0.111042 -0.30207,-0.248751 -0.41858,-0.427364 -0.30293,-0.464392 -0.25035,-1.008061 0.01,-1.546675 0.34087,-0.66793 1.04576,-1.343805 1.8495,-1.868103 0.96451,-0.629159 1.83952,-0.907559 2.53422,-0.876949 0.59412,0.03256 1.05583,0.291844 1.32963,0.711584 0.26215,0.401878 0.3156,0.697872 0.24185,0.975134 -0.0834,0.359974 -0.40661,0.723584 -0.95602,1.247469 l 0.42168,0.450619 c 0.48962,-0.459421 0.93682,-0.866105 1.40198,-1.245919 -0.0416,-0.278416 -0.11554,-0.548074 -0.21652,-0.800468 -0.1208,-0.341314 -0.27435,-0.63545 -0.42581,-0.867647 -0.55343,-0.848409 -1.24671,-1.364184 -2.04897,-1.579232 -0.26551,-0.0667 -0.54538,-0.09898 -0.83613,-0.09405 z m -75.453791,0.560689 -2.685107,4.332552 0.398942,0.247014 c 0.387587,-0.625354 0.52882,-0.65107 1.163236,-0.257866 l 4.17804,2.589506 c 0.634417,0.393205 0.680009,0.522101 0.286804,1.156519 l 0.398942,0.247013 2.819466,-4.549593 -1.36064,-1.244885 -0.326079,0.525549 c 0.838384,0.833237 0.85265,0.992673 0.549321,1.48208 l -0.775147,1.25057 c -0.106727,0.172199 -0.188108,0.222135 -0.541569,0.0031 l -2.220019,-1.376144 0.538985,-0.869714 c 0.241541,-0.389714 0.358886,-0.417562 1.192692,0.09922 l 0.309025,-0.498161 -2.25671,-1.398881 -0.309025,0.498677 c 0.752237,0.46623 0.814182,0.629624 0.578259,1.010275 l -0.533817,0.860929 -1.97559,-1.224215 c -0.335335,-0.207871 -0.381872,-0.274565 -0.207739,-0.555521 l 0.606681,-0.978752 c 0.297713,-0.480345 0.413728,-0.546443 1.500167,-0.17415 l 0.325561,-0.525549 z m 80.666391,5.259111 -0.42271,0.204122 c 0.3195,0.66273 0.26512,0.795181 -0.40721,1.119311 l -4.42764,2.134754 c -0.67233,0.32413 -0.8055,0.293547 -1.12964,-0.378789 l -0.42272,0.203606 2.32441,4.821927 1.78129,-0.480074 -0.26872,-0.557072 c -1.15308,0.259967 -1.29509,0.18638 -1.54513,-0.332279 l -0.63872,-1.325501 c -0.088,-0.18249 -0.0867,-0.277783 0.28784,-0.458369 l 2.35334,-1.134298 0.44442,0.921907 c 0.19911,0.413006 0.15914,0.526914 -0.7245,0.952914 l 0.25476,0.528133 2.39159,-1.152901 -0.25477,-0.528133 c -0.7972,0.384326 -0.96824,0.348626 -1.16272,-0.05478 l -0.43976,-0.912606 2.09393,-1.009241 c 0.35538,-0.171326 0.43627,-0.175276 0.57981,0.122473 l 0.50022,1.037663 c 0.24541,0.509053 0.2385,0.642379 -0.65887,1.35909 l 0.26872,0.557072 1.43608,-1.047481 z m -84.38296,1.407149 c -0.3361,0.313131 -0.706121,0.798767 -1.001489,1.425753 -0.345354,0.733089 -0.41653,1.359206 -0.304374,1.87172 0.122917,0.564732 0.485776,0.995048 0.977718,1.226799 0.385837,0.181765 0.778112,0.225404 1.149284,0.188102 0.560744,-0.08944 1.138133,-0.489564 1.815909,-0.877466 0.568243,-0.38057 0.959447,-0.584991 1.348238,-0.684713 0.313296,-0.06457 0.581026,-0.03287 0.88005,0.108004 0.337607,0.159045 0.548809,0.41183 0.636654,0.700732 0.09749,0.293447 0.06727,0.632531 -0.08268,0.950847 -0.349898,0.742735 -0.862623,1.055549 -2.185396,0.785998 l -0.114205,0.617534 c 0.507889,0.09782 1.044806,0.233517 1.693954,0.456819 0.391187,-0.405045 0.812361,-0.973089 1.098641,-1.580782 0.41806,-0.887425 0.44303,-1.64191 0.248046,-2.228804 -0.179119,-0.520488 -0.560879,-0.935727 -1.062467,-1.172022 -0.482296,-0.227206 -0.930855,-0.250118 -1.367875,-0.173116 -0.507414,0.126346 -0.944935,0.403689 -1.800407,0.943612 -0.663586,0.382801 -0.973833,0.56664 -1.305863,0.645955 -0.275271,0.05891 -0.505059,0.02142 -0.717269,-0.07855 -0.241148,-0.113603 -0.40723,-0.286623 -0.488859,-0.513664 -0.08729,-0.265066 -0.07584,-0.589468 0.0832,-0.927075 0.377163,-0.800612 0.808841,-0.891929 1.912544,-0.607715 l 0.15813,-0.585494 c -0.633842,-0.180732 -1.200948,-0.353281 -1.57148,-0.492476 z" /></g><g
           id="g1655"><path
             style="color:#000000;fill:none;fill-rule:evenodd;stroke:#000000;stroke-width:1.05833;stroke-dasharray:none;stroke-opacity:1"
             d="m 113.59375,16.160156 c 21.15664,-4e-6 39.66602,21.870624 39.66602,50.515625 0,28.645003 -18.50938,50.513679 -39.66602,50.513669 -21.156633,0 -39.664064,-21.868671 -39.664063,-50.513669 10e-7,-28.644995 18.507431,-50.515622 39.664063,-50.515625 z"
             id="path1571" /><path
             style="color:#000000;fill:none;fill-rule:evenodd;stroke:#000000;stroke-width:1.05833;stroke-dasharray:none;stroke-opacity:1"
             d="m 113.59375,3.1425781 c -29.845002,4e-6 -52.68164,29.1916679 -52.681641,63.5332029 -2e-6,34.341539 22.836638,63.531249 52.681641,63.531249 29.84501,1e-5 52.6836,-29.18971 52.68359,-63.531249 0,-34.341541 -22.83858,-63.5332085 -52.68359,-63.5332029 z"
             id="path1790" /></g></g><g
         id="g3569"
         transform="translate(-0.57269723)"><g
           id="g2562"
           style="opacity:1"><path
             id="path2551"
             style="color:#000000;fill:#000000;stroke-width:1.41491"
             d="m 103.03144,25.394316 c -1.56474,-0.0011 -3.194957,0.195041 -4.890661,0.595829 l -0.373104,0.08785 -0.0078,0.278019 -0.197404,0.04651 -0.466638,16.298746 0.740006,-0.01189 c 5.840181,-0.09224 11.471091,-0.274119 15.880681,3.369303 l 0.44959,0.373104 0.45113,-0.373104 c 4.40962,-3.643424 10.04046,-3.461539 15.88069,-3.369303 l 0.74052,0.01189 -0.46922,-16.298746 -0.19689,-0.04651 -0.008,-0.278019 -0.37104,-0.08785 c -6.23414,-1.473461 -11.56902,-0.111614 -16.01607,3.537252 -3.24133,-2.665726 -6.95099,-4.130254 -11.14609,-4.133081 z" /><path
             id="path2358"
             style="font-variation-settings:normal;fill:#ffffff;fill-opacity:1;stroke:none;stroke-width:0.264117;stroke-linecap:butt;stroke-linejoin:miter;stroke-miterlimit:4;stroke-dasharray:none;stroke-dashoffset:0;stroke-opacity:1;stop-color:#000000"
             d="m 103.03051,25.892435 c -1.52277,-0.0011 -3.113755,0.19034 -4.775482,0.583097 l -0.430387,15.016999 c 5.830369,-0.09208 11.697469,-0.306168 16.342539,3.531812 4.64508,-3.83798 10.51215,-3.623893 16.34256,-3.531812 l -0.43091,-15.016999 c -6.25594,-1.478612 -11.50523,-0.105416 -15.91165,3.657193 -3.23596,-2.763167 -6.92664,-4.237453 -11.13667,-4.24029 z" /><path
             style="color:#000000;fill:#000000"
             d="m 113.90157,29.742187 v 15.671875 h 0.53125 V 29.742187 Z"
             id="path2365" /></g><g
           id="g3552"><path
             id="path3508"
             style="color:#000000;-inkscape-font-specification:Kalpurush;fill:#000000;stroke-width:0.0529167"
             d="m 100.91787,29.482438 0.2403,0.290938 2.08772,0.203089 -0.1328,1.377177 -0.20464,-0.224793 c 0.0384,-0.107175 0.066,-0.212768 0.076,-0.31626 0.0148,-0.15378 -0.006,-0.297782 -0.0625,-0.42788 -0.0464,-0.09431 -0.10635,-0.174674 -0.17983,-0.240296 -0.0702,-0.06475 -0.1471,-0.115422 -0.22841,-0.152445 -0.0589,-0.02432 -0.11698,-0.04085 -0.1757,-0.04651 -0.12318,-0.01189 -0.25303,0.02161 -0.38654,0.0956 h -0.002 c -0.0525,0.03323 -0.0972,0.07926 -0.13487,0.134876 -0.0374,0.05356 -0.0603,0.113053 -0.0667,0.177767 -0.006,0.05989 0.003,0.119011 0.0258,0.173633 v 0.0021 c 0.0491,0.08689 0.12623,0.147166 0.22428,0.175699 0.10325,0.02624 0.19856,0.01361 0.28112,-0.03927 0.0517,-0.02773 0.0929,-0.06282 0.12505,-0.10697 0.0352,-0.04388 0.0561,-0.09138 0.0605,-0.142627 0.005,-0.04868 -0.0183,-0.102923 -0.0444,-0.156579 0.0302,-0.0055 0.0591,-0.0098 0.0858,-0.0021 0.0341,0.0098 0.0726,0.03354 0.11524,0.07441 0.0231,0.02545 0.0485,0.06453 0.076,0.117305 0.0291,0.05155 0.0494,0.109029 0.0605,0.171566 0.003,0.03922 0.003,0.07436 0,0.107487 -0.009,0.09681 -0.0451,0.193586 -0.10904,0.289388 -0.0916,0.13008 -0.25228,0.183729 -0.49609,0.160197 -0.0968,-0.0093 -0.18754,-0.04461 -0.27543,-0.107487 -0.0881,-0.06566 -0.16818,-0.15059 -0.23823,-0.257866 -0.0698,-0.109801 -0.12746,-0.238641 -0.17415,-0.384989 -0.0466,-0.1462 -0.0791,-0.306996 -0.0977,-0.484208 l -0.002,-0.01395 -0.1757,-0.09353 v 0.04496 c 0.003,0.186116 0.019,0.361385 0.047,0.5271 0.0281,0.166123 0.0702,0.311612 0.12867,0.437699 v 0.0021 c 0.0499,0.10069 0.1051,0.192804 0.16433,0.279053 0.0594,0.08645 0.12192,0.162673 0.18914,0.22686 0.0697,0.06431 0.14194,0.115171 0.21497,0.153995 0.0734,0.03901 0.14783,0.06305 0.22273,0.07028 0.13303,0.01284 0.25369,-0.0011 0.35967,-0.04444 0.0967,-0.03837 0.17171,-0.101668 0.23616,-0.177767 0.21989,0.183439 0.36433,0.450373 0.42374,0.81442 -0.0177,-0.01511 0.0735,0.06341 0.11742,0.1013 l 0.21859,-2.269629 0.43357,0.04134 -0.0408,-0.04909 -0.19947,-0.241846 z" /><path
             id="path3517"
             style="color:#000000;-inkscape-font-specification:Kalpurush;fill:#000000;stroke-width:0.0529167"
             d="m 107.41412,30.577978 0.18965,0.29714 1.87844,0.409794 -0.26924,1.232483 -0.15813,-0.218591 c 0.0467,-0.09348 0.0809,-0.187856 0.10129,-0.28112 0.0301,-0.138667 0.0277,-0.271448 -0.01,-0.396358 -0.0318,-0.09057 -0.0791,-0.171068 -0.13849,-0.238746 -0.057,-0.06673 -0.11947,-0.123214 -0.18966,-0.165881 h -0.002 c -0.0512,-0.02864 -0.10307,-0.04886 -0.15607,-0.06046 -0.11134,-0.02432 -0.23341,-0.008 -0.36328,0.04496 -0.0517,0.02468 -0.0985,0.06076 -0.13901,0.107487 -0.0407,0.04524 -0.067,0.09695 -0.0801,0.156063 -0.0122,0.05424 -0.0124,0.109722 0.002,0.162264 v 0.0021 h 0.002 c 0.0355,0.08491 0.099,0.148687 0.18552,0.185518 0.0916,0.03526 0.18212,0.03325 0.26355,-0.0062 0.0493,-0.01967 0.0915,-0.04741 0.12506,-0.08372 0.0363,-0.03593 0.0601,-0.07716 0.0703,-0.122989 v -0.0021 c 0.009,-0.04329 -0.006,-0.09409 -0.0233,-0.144694 0.0268,-0.0013 0.0534,-0.0017 0.076,0.0078 0.0295,0.01248 0.0619,0.03845 0.0961,0.0801 0.0177,0.02543 0.0359,0.06329 0.0548,0.113172 l 0.002,0.0021 c 0.021,0.04981 0.0324,0.102345 0.0356,0.160197 -0.001,0.03579 -0.005,0.06823 -0.0119,0.09767 -0.0189,0.0867 -0.0623,0.170099 -0.13075,0.250114 -0.0969,0.106702 -0.24909,0.139628 -0.46715,0.09198 -0.0867,-0.01895 -0.16532,-0.06056 -0.23823,-0.127124 -0.0725,-0.06881 -0.1357,-0.15556 -0.18758,-0.259932 v -0.0021 c -0.0512,-0.106968 -0.0904,-0.229446 -0.11679,-0.366903 -0.0261,-0.13803 -0.0371,-0.287911 -0.0351,-0.451135 v -0.01395 l -0.15452,-0.10697 -0.004,0.04444 c -0.0179,0.1698 -0.023,0.330717 -0.0155,0.484725 0.007,0.154413 0.0307,0.292573 0.0703,0.413928 0.0344,0.09717 0.0727,0.188315 0.1173,0.273368 0.0447,0.08527 0.094,0.160994 0.14831,0.22686 l 0.002,0.0016 c 0.0566,0.06624 0.11538,0.120931 0.17777,0.164331 0.0628,0.04364 0.12764,0.07306 0.19534,0.08785 0.11996,0.02622 0.23227,0.02602 0.33383,-0.0021 0.0912,-0.02414 0.16384,-0.07535 0.23047,-0.136426 0.1809,0.191696 0.28575,0.45 0.29921,0.79065 0.0325,0.03462 0.0649,0.06925 0.0974,0.10387 l 0.44752,-2.043286 0.0506,0.01189 h 0.002 c 0.0516,0.01128 0.0996,0.0308 0.14263,0.06046 0.0459,0.02816 0.0839,0.06397 0.11317,0.10387 0.0316,0.0379 0.053,0.08151 0.0646,0.130741 0.0115,0.04886 0.0123,0.09995 0,0.156063 l -0.31264,1.433504 0.1819,0.299207 0.447,-2.045354 0.39688,0.0863 -0.18759,-0.295072 -0.1664,-0.03721 c -0.0377,-0.06496 -0.0574,-0.161035 -0.0506,-0.296623 l 0.002,-0.0098 -0.0977,-0.127124 -0.0114,0.05684 c -0.009,0.03935 -0.0192,0.08631 -0.0295,0.144178 -0.01,0.0556 -0.0196,0.122914 -0.0315,0.199471 -0.01,0.07891 -0.0209,0.148108 -0.031,0.205155 -0.003,0.01893 -0.007,0.02965 -0.01,0.04651 -0.0229,-0.190976 -0.13478,-0.287993 -0.26977,-0.333828 -0.11706,-0.02497 -0.23388,-0.05213 -0.35138,-0.07807 z" /><path
             id="path3535"
             style="color:#000000;-inkscape-font-specification:Kalpurush;fill:#000000;stroke-width:0.0529167"
             d="m 101.51163,35.457267 0.24598,0.294556 1.387,0.132808 -0.0139,0.13901 c -0.47648,0.107425 -0.91231,0.284248 -1.30432,0.536918 l -0.0217,0.01344 0.28732,0.439766 0.0114,0.0021 c 0.23224,0.05015 0.43264,0.178638 0.60565,0.388607 0.0751,0.09114 0.14116,0.193181 0.19895,0.308508 v 0.0021 c 0.0606,0.113 0.11173,0.232232 0.15038,0.361219 0.006,0.01977 0.0184,0.03654 0.0357,0.05064 l 0.002,0.0021 c 0.0167,0.01039 0.0349,0.01896 0.0527,0.02377 l 0.0294,0.0078 0.17363,-1.791105 c 0.19522,0.02285 0.34484,0.08783 0.4377,0.21084 h 0.002 c 0.10301,0.125046 0.1444,0.256661 0.13074,0.398425 l -0.004,0.0057 c -0.0207,-0.02575 -0.0403,-0.05202 -0.0661,-0.07028 -0.0352,-0.02618 -0.078,-0.04198 -0.12506,-0.04651 -0.0774,-0.0075 -0.14683,0.01089 -0.20515,0.05633 -0.0584,0.04551 -0.0924,0.108552 -0.0997,0.183968 -0.004,0.04198 4.4e-4,0.08244 0.014,0.120923 v 0.0021 0.0021 c 0.016,0.03488 0.0372,0.06593 0.0625,0.09353 0.0276,0.02737 0.0598,0.05058 0.0935,0.07028 v 0.0021 c 0.0349,0.01746 0.0726,0.02724 0.11162,0.03101 0.0548,0.0053 0.10877,8.3e-5 0.15813,-0.01757 v -0.0016 c 0.0487,-0.02005 0.092,-0.04691 0.12867,-0.08216 0.0365,-0.0376 0.0682,-0.08137 0.092,-0.130742 0.0243,-0.04939 0.0378,-0.103974 0.0429,-0.160197 v -0.0021 c 0.0213,-0.225639 -0.0331,-0.441947 -0.16381,-0.644405 -0.13186,-0.216369 -0.32958,-0.331076 -0.57258,-0.363285 l 0.0119,-0.119373 1.1622,0.113172 -0.25218,-0.294556 z m 1.57252,0.919841 -0.10387,1.072286 c -0.14136,-0.310209 -0.36616,-0.557393 -0.67541,-0.734323 0.14457,-0.08085 0.28167,-0.152162 0.40979,-0.207222 0.12422,-0.05559 0.24755,-0.09619 0.36949,-0.130741 z" /><path
             id="path3526"
             style="color:#000000;-inkscape-font-specification:Kalpurush;fill:#000000;stroke-width:0.0529167"
             d="m 109.41399,36.011755 -0.32401,2.140438 c -0.10144,-0.233752 -0.27288,-0.442505 -0.5178,-0.622701 0.1218,-0.0216 0.23884,-0.06493 0.34365,-0.150378 0.11708,-0.09993 0.18783,-0.215857 0.20722,-0.344165 0.0184,-0.121517 -0.0177,-0.247212 -0.10335,-0.372587 -0.0115,-0.01573 -0.0372,-0.04963 -0.0801,-0.101803 -0.0431,-0.05241 -0.10075,-0.116338 -0.17001,-0.195337 l -0.0155,-0.01964 -0.0196,0.01395 c -0.0539,0.03759 -0.10372,0.07523 -0.15245,0.111104 -0.0227,0.01673 -0.0404,0.02863 -0.0527,0.03721 -0.006,0.0043 -0.0122,0.0077 -0.0155,0.0098 -0.002,10e-4 -0.003,0.0017 -0.004,0.0021 l -0.002,0.0021 c -0.0488,0.02734 -0.0972,0.04863 -0.14418,0.06614 -0.0364,0.01257 -0.0712,0.01922 -0.10542,0.0217 -3.3e-4,-0.05334 -0.004,-0.104712 -0.0315,-0.14056 -0.0336,-0.04386 -0.0864,-0.06987 -0.154,-0.0801 -0.0685,-0.01037 -0.1331,0.0087 -0.18965,0.05271 h -0.002 c -0.0532,0.04423 -0.0855,0.100333 -0.0956,0.165882 -0.0133,0.08834 0.0103,0.171418 0.0682,0.240295 0.0575,0.06841 0.13288,0.109404 0.22273,0.12299 0.22681,0.0343 0.46912,-0.05359 0.72295,-0.232544 0.0505,0.06427 0.0757,0.130134 0.0641,0.207222 -0.007,0.04863 -0.0372,0.09387 -0.0956,0.134876 -0.0559,0.03913 -0.13519,0.07226 -0.23616,0.09922 -0.0825,0.02216 -0.16432,0.03723 -0.24443,0.04496 -0.0777,0.0056 -0.15142,0.0024 -0.21859,-0.0078 -0.0284,-0.0043 -0.0557,-0.0089 -0.0837,-0.0155 h -0.002 c -0.0259,-0.0089 -0.0506,-0.01853 -0.0765,-0.02739 l -0.0682,-0.02325 0.33021,0.556555 0.01,0.0021 c 0.19031,0.0483 0.35796,0.131728 0.50385,0.249597 l 0.006,0.0062 c 0.082,0.06719 0.15093,0.139387 0.20877,0.214974 0.0577,0.07533 0.10502,0.157649 0.14056,0.249598 0.004,0.0092 0.0109,0.03719 0.0196,0.07855 v 0.0016 c 0.0113,0.04192 0.0228,0.09031 0.0351,0.142627 0.008,0.03567 0.0218,0.0728 0.0393,0.111621 v 0.0021 c 0.0183,0.03723 0.0398,0.07076 0.0646,0.101286 l 0.0388,0.04702 0.33228,-2.195214 0.35915,0.05478 -0.0372,-0.05271 -0.18707,-0.248047 -0.008,-0.0021 c -0.0826,-0.01962 -0.12519,-0.05403 -0.14056,-0.107487 -0.002,-0.01148 -0.003,-0.03888 -0.002,-0.0801 9.1e-4,-0.04168 0.005,-0.08413 0.0119,-0.125057 l 0.002,-0.01395 z" /><path
             d="m 117.69823,33.919559 q -0.22896,0.353064 -0.47921,0.441943 -0.14721,0.05228 -0.27424,0.0038 -0.12766,-0.05005 -0.1725,-0.176293 -0.0607,-0.171 0.0603,-0.366958 0.12048,-0.197562 0.60846,-0.626423 l -0.0534,-0.150218 q -0.0602,-0.16939 -0.0975,-0.204715 -0.0361,-0.03756 -0.10637,-0.04861 -0.0707,-0.01266 -0.14441,0.01349 -0.11959,0.04248 -0.18042,0.116267 -0.0376,0.04576 -0.024,0.08411 0.0124,0.03348 0.0811,0.06479 0.0944,0.04386 0.11704,0.107798 0.0278,0.07831 -0.0204,0.158412 -0.047,0.07787 -0.15551,0.116413 -0.11593,0.04117 -0.21661,0.0085 -0.0988,-0.03329 -0.12778,-0.114792 -0.0409,-0.115061 0.0271,-0.256187 0.0674,-0.142717 0.23524,-0.265315 0.16784,-0.122587 0.37023,-0.194476 0.24473,-0.08692 0.41877,-0.04614 0.17532,0.03852 0.2551,0.12896 0.0496,0.05797 0.1353,0.299281 l 0.206,0.580114 q 0.0363,0.102273 0.0551,0.126213 0.0182,0.02234 0.0413,0.02854 0.0229,0.0063 0.0469,-0.0023 0.0478,-0.01699 0.0764,-0.09374 l 0.0688,0.01874 q -0.05,0.150931 -0.13008,0.24056 -0.0789,0.08739 -0.20392,0.131808 -0.1472,0.05228 -0.25101,0.02256 -0.10434,-0.03132 -0.16591,-0.146238 z m -0.0414,-0.116671 -0.17761,-0.500212 q -0.18234,0.192539 -0.24494,0.360543 -0.0411,0.111794 -0.01,0.199687 0.0261,0.07352 0.10678,0.107857 0.0614,0.0268 0.14412,-0.0026 0.0921,-0.03269 0.18167,-0.165301 z"
             style="font-weight:bold;font-size:3.72688px;line-height:1.25;font-family:'Times New Roman';-inkscape-font-specification:'Times New Roman,  Bold';stroke-width:0.0931724"
             id="path3487" /><path
             d="m 121.18984,30.207725 0.13581,0.86276 q 0.19544,-0.240212 0.46549,-0.282722 0.18518,-0.02915 0.36417,0.04053 0.17873,0.068 0.29874,0.227658 0.12007,0.159644 0.15593,0.38748 0.0404,0.256315 -0.0444,0.484244 -0.0847,0.227931 -0.26404,0.369469 -0.17962,0.139865 -0.43231,0.179642 -0.14659,0.02308 -0.26673,7.9e-4 -0.12013,-0.0223 -0.24433,-0.09545 l -0.27234,0.216266 -0.0656,0.01033 -0.31355,-1.991886 q -0.0214,-0.135696 -0.0398,-0.165408 -0.0267,-0.04387 -0.0725,-0.05897 -0.0442,-0.01708 -0.1431,-0.0049 l -0.01,-0.06198 z m 0.15928,1.011859 0.1097,0.696908 q 0.0335,0.212759 0.0543,0.269574 0.0348,0.0958 0.11796,0.146242 0.0828,0.04876 0.19659,0.03086 0.0984,-0.01548 0.16017,-0.075 0.0637,-0.05981 0.0874,-0.211178 0.0256,-0.151665 -0.0335,-0.526923 -0.0567,-0.360182 -0.18199,-0.4778 -0.0905,-0.08532 -0.21784,-0.06528 -0.16588,0.02611 -0.29269,0.212601 z"
             style="font-weight:bold;font-size:3.72688px;line-height:1.25;font-family:'Times New Roman';-inkscape-font-specification:'Times New Roman,  Bold';stroke-width:0.0931724"
             id="path3489" /><path
             d="m 126.84521,30.330033 0.0661,0.03079 q -0.0946,0.227773 -0.26949,0.360025 -0.17322,0.130274 -0.38732,0.163978 -0.36072,0.05678 -0.61394,-0.145423 -0.25323,-0.202203 -0.30545,-0.533904 -0.0504,-0.319976 0.10815,-0.593861 0.19111,-0.330519 0.60776,-0.396107 0.2797,-0.04403 0.46291,0.05246 0.18514,0.09618 0.20888,0.246955 0.015,0.09549 -0.0435,0.163078 -0.0567,0.06728 -0.16464,0.08429 -0.11381,0.01791 -0.19932,-0.03558 -0.0835,-0.0538 -0.12729,-0.218596 -0.0282,-0.103722 -0.0792,-0.138612 -0.051,-0.03489 -0.11079,-0.02548 -0.0926,0.01458 -0.14472,0.110339 -0.08,0.14478 -0.038,0.411147 0.0348,0.221135 0.1477,0.411093 0.11263,0.188283 0.26903,0.264953 0.11743,0.05534 0.2621,0.03256 0.0945,-0.01488 0.17333,-0.06677 0.0788,-0.05189 0.17767,-0.177328 z"
             style="font-weight:bold;font-size:3.72688px;line-height:1.25;font-family:'Times New Roman';-inkscape-font-specification:'Times New Roman,  Bold';stroke-width:0.0931724"
             id="path3491" /><path
             d="m 118.08912,37.47985 0.48024,1.818394 q 0.0542,0.204954 0.0901,0.256866 0.0355,0.05026 0.11109,0.06889 0.0756,0.01861 0.22096,-0.01982 l 0.0585,-0.01544 0.0163,0.06064 -1.34801,0.356022 -0.0163,-0.06064 0.0679,-0.01795 q 0.16425,-0.04338 0.22544,-0.09462 0.0612,-0.05123 0.0706,-0.115122 0.009,-0.06388 -0.046,-0.273754 l -0.30444,-1.152689 q -0.0407,-0.154127 -0.0676,-0.18735 -0.0274,-0.03487 -0.0816,-0.04862 -0.0527,-0.0159 -0.11309,4.4e-5 -0.0963,0.02543 -0.22025,0.114299 l -0.0496,-0.05004 0.84335,-0.622658 z"
             style="font-weight:bold;font-size:3.72688px;line-height:1.25;font-family:'Times New Roman';-inkscape-font-specification:'Times New Roman,  Bold';stroke-width:0.0931724"
             id="path3493" /><path
             d="m 123.16368,38.223473 -1.49872,0.426603 -0.0104,-0.03586 q 0.48636,-0.908984 0.56275,-1.196978 0.0783,-0.288531 0.0114,-0.52341 -0.0488,-0.171264 -0.20287,-0.249062 -0.15457,-0.07943 -0.33111,-0.02918 -0.28924,0.08233 -0.37737,0.378958 l -0.0755,-0.0014 q 0.0123,-0.342053 0.17615,-0.550904 0.16388,-0.20887 0.43432,-0.285848 0.19344,-0.05507 0.37537,-0.02221 0.18192,0.03285 0.31107,0.144203 0.12864,0.109735 0.16253,0.228806 0.0618,0.216932 -0.0136,0.479951 -0.1038,0.355748 -0.58867,1.077402 l 0.55028,-0.156637 q 0.20283,-0.05773 0.25876,-0.08953 0.0578,-0.03234 0.0875,-0.07781 0.0292,-0.04711 0.0611,-0.177834 l 0.0676,-0.01924 z"
             style="font-weight:bold;font-size:3.72688px;line-height:1.25;font-family:'Times New Roman';-inkscape-font-specification:'Times New Roman,  Bold';stroke-width:0.0931724"
             id="path3495" /><path
             d="m 126.26664,36.538935 -0.006,-0.05898 q 0.21513,-0.08004 0.29532,-0.136655 0.0801,-0.05831 0.13133,-0.162924 0.0511,-0.106304 0.0399,-0.207443 -0.0155,-0.13991 -0.14481,-0.226304 -0.12761,-0.0883 -0.30229,-0.06903 -0.27173,0.02998 -0.43442,0.300437 l -0.0742,-0.014 q 0.10865,-0.296924 0.31046,-0.462498 0.2037,-0.165791 0.47155,-0.195337 0.27367,-0.03019 0.46628,0.0953 0.19455,0.12527 0.21594,0.319121 0.014,0.126427 -0.0565,0.25362 -0.0687,0.125299 -0.23545,0.234128 0.23769,0.07103 0.3717,0.199569 0.13578,0.126634 0.15921,0.339029 0.0394,0.35736 -0.23179,0.641497 -0.26943,0.282237 -0.77019,0.337476 -0.33383,0.03683 -0.49777,-0.04235 -0.11807,-0.05522 -0.12978,-0.161419 -0.009,-0.07754 0.0496,-0.138555 0.058,-0.0627 0.14139,-0.0719 0.0641,-0.0071 0.12293,0.0103 0.0325,0.01001 0.2357,0.124144 0.20489,0.112185 0.36986,0.09399 0.14364,-0.01584 0.23572,-0.124959 0.0919,-0.110809 0.0752,-0.262518 -0.0254,-0.230935 -0.2332,-0.404234 -0.20789,-0.174984 -0.57514,-0.209543 z"
             style="font-weight:bold;font-size:3.72688px;line-height:1.25;font-family:'Times New Roman';-inkscape-font-specification:'Times New Roman,  Bold';stroke-width:0.0931724"
             id="path3497" /></g></g><g
         id="g4667"
         transform="translate(-2.802251e-4)"><g
           id="g8821"
           transform="translate(0.0011395)"><path
             id="path8814"
             style="opacity:1;fill:#211e53;fill-opacity:1;fill-rule:evenodd;stroke-width:1.65399;stop-color:#000000;stop-opacity:1"
             d="m 138.54953,58.142702 h 0.0279 v 2.777092 h -0.0279 z" /><path
             id="rect8807"
             style="opacity:1;fill:#211e53;fill-opacity:1;fill-rule:evenodd;stroke-width:1.65399;stop-color:#000000;stop-opacity:1"
             d="m 88.612679,58.142704 h 0.02791 v 2.777092 h -0.02791 z" /><g
             id="g4548"><path
               id="path2724"
               style="color:#000000;fill:#211e53;fill-opacity:1;stroke:none"
               d="m 88.625081,58.142704 v 2.777092 h 1.917712 v 22.799125 c 0,4.631516 2.794721,9.957039 7.19336,14.119034 4.392047,4.155775 10.215347,6.995955 15.857427,6.995955 5.64209,0 11.46539,-2.84018 15.85743,-6.995955 4.39864,-4.161995 7.19336,-9.487518 7.19336,-14.119034 V 60.919796 h 1.91771 v -2.777092 h -4.69532 v 25.576217 c 0,3.444098 -2.38289,8.370396 -6.32622,12.101587 -3.94992,3.737414 -9.26284,6.236312 -13.94696,6.236312 -4.68411,0 -9.99703,-2.498898 -13.946949,-6.236312 -3.943339,-3.731191 -6.326228,-8.657489 -6.326229,-12.101587 V 58.142704 Z" /><path
               id="path2858"
               style="color:#000000;fill:#0982bb;fill-opacity:1;stroke:none"
               d="m 83.92976,58.142704 v 1.388546 24.187671 c 0,7.126149 3.873519,13.825842 9.261451,18.923909 5.393307,5.10313 12.613119,8.80618 20.402369,8.80618 7.78926,0 15.00907,-3.70305 20.40237,-8.80618 5.38794,-5.098067 9.26146,-11.79776 9.26146,-18.923909 V 59.53125 58.142704 h -4.69533 v 2.777092 h 1.91823 v 22.799125 c 0,6.106783 -3.40987,12.189155 -8.39483,16.905949 -4.9796,4.71167 -11.59024,8.04705 -18.4919,8.04705 -6.90165,0 -13.51229,-3.33538 -18.491892,-8.04705 C 90.116721,95.908076 86.706852,89.825704 86.706852,83.718921 V 60.919796 h 1.918229 v -2.777092 z" /></g></g><g
           id="g4642"><g
             id="g2070"
             transform="translate(0.001135)"><g
               id="g8717"
               transform="translate(0.3531103)"><path
                 id="rect8700"
                 style="opacity:1;fill:#211e53;fill-rule:evenodd;stroke-width:2.27202;stop-color:#000000;stop-opacity:1"
                 d="M 96.857849,77.723648 H 129.6231 v 0.26017 H 96.857849 Z" /><g
                 id="g8474"
                 transform="translate(-0.0231563,-0.00748285)"><path
                   id="path8464"
                   style="opacity:1;fill:#211e53;fill-opacity:1;fill-rule:evenodd;stroke-width:3.94781;stop-color:#000000;stop-opacity:1"
                   d="m 113.26337,61.501672 a 16.359566,16.359566 0 0 0 -16.359208,16.359208 16.359566,16.359566 0 0 0 0,5.17e-4 H 129.6231 a 16.359566,16.359566 0 0 0 0,-5.17e-4 16.359566,16.359566 0 0 0 -16.35973,-16.359208 z" /><path
                   id="path8470"
                   style="opacity:1;fill:#0982bb;fill-opacity:1;fill-rule:evenodd;stroke-width:3.94781;stop-color:#000000;stop-opacity:1"
                   d="m 113.26337,94.22076 a 16.359566,16.359566 0 0 1 -16.359208,-16.359208 16.359566,16.359566 0 0 1 0,-5.17e-4 H 129.6231 a 16.359566,16.359566 0 0 1 0,5.17e-4 16.359566,16.359566 0 0 1 -16.35973,16.359208 z" /></g><g
                 id="g8706"
                 transform="translate(-0.0212458,-0.00749085)"><g
                   id="g8478"><path
                     id="path6008"
                     style="color:#000000;fill:#ffffff;fill-opacity:1"
                     d="m 113.0917,61.343542 v 0.0026 c -2.81488,0.04785 -5.39162,1.433915 -7.41195,3.7052 -0.62319,-0.160701 -1.23885,-0.340458 -1.84588,-0.538985 l -0.3607,0.243913 c 0.64223,0.216395 1.29394,0.411807 1.9544,0.586011 -0.23115,0.274746 -0.45473,0.561078 -0.66972,0.858862 -1.04846,1.452174 -1.90038,3.171069 -2.50011,5.075142 -1.28908,-0.109978 -2.57691,-0.23815 -3.863329,-0.385506 l -0.03927,0.341581 c 1.265209,0.144927 2.531939,0.271947 3.799759,0.380856 -0.57066,1.928328 -0.88521,4.037749 -0.88521,6.248197 h 0.34365 c 0,-2.204116 0.31833,-4.305025 0.89245,-6.219259 1.50628,0.125377 3.01428,0.225323 4.52427,0.29869 -0.28125,1.838566 -0.43667,3.833234 -0.43667,5.920569 h 0.34417 c 0,-2.083978 0.15707,-4.074456 0.43925,-5.904549 1.90196,0.08732 3.80704,0.132787 5.71489,0.135392 v 5.769157 h 0.34365 V 72.09224 c 1.8899,-0.0026 3.77706,-0.04704 5.66116,-0.132808 0.28204,1.829379 0.43873,3.818976 0.43873,5.901965 h 0.34365 c 0,-2.086558 -0.15566,-4.080502 -0.43719,-5.918502 1.51482,-0.073 3.02767,-0.172308 4.53875,-0.297656 0.57404,1.913403 0.89245,4.013227 0.89245,6.216158 h 0.34365 c 0,-2.209305 -0.31511,-4.317578 -0.88574,-6.245097 1.28044,-0.109625 2.55975,-0.237591 3.83749,-0.383956 l -0.0393,-0.341581 c -1.29897,0.148793 -2.5994,0.277924 -3.90105,0.388607 -0.60028,-1.905257 -1.45266,-3.625313 -2.50166,-5.078243 -0.21269,-0.29459 -0.43398,-0.578026 -0.66249,-0.850077 0.6739,-0.176974 1.33875,-0.376515 1.99367,-0.59738 l -0.30385,-0.261999 c -0.63825,0.210329 -1.28586,0.400032 -1.942,0.56844 -2.01128,-2.26499 -4.57444,-3.65232 -7.3763,-3.713468 v -0.0031 h -0.19327 -0.0134 z m 0,0.349333 v 4.315499 c -1.35662,-0.0075 -2.69208,-0.103588 -4.00078,-0.284221 0.5199,-1.168692 1.11369,-2.123113 1.75286,-2.80603 0.70915,-0.757697 1.46488,-1.178875 2.24792,-1.225248 z m 0.34365,0.0036 c 0.76363,0.0623 1.50095,0.481509 2.19367,1.221631 0.6404,0.684241 1.23492,1.64095 1.75545,2.812748 -1.29218,0.176158 -2.61027,0.269941 -3.94912,0.277503 z m 1.45366,0.153479 c 2.07188,0.408507 3.97059,1.576456 5.54592,3.304191 -0.8842,0.214836 -1.78387,0.390655 -2.69648,0.526066 -0.54024,-1.238846 -1.16388,-2.257403 -1.85777,-2.998783 -0.31551,-0.337103 -0.64714,-0.616118 -0.99167,-0.831474 z m -3.31091,0.0031 c -0.34265,0.214916 -0.6726,0.492983 -0.9865,0.828373 -0.69249,0.739876 -1.31633,1.756107 -1.85622,2.991549 -0.90684,-0.136151 -1.80073,-0.312534 -2.67942,-0.5271 1.56958,-1.718777 3.46,-2.881916 5.52214,-3.292822 z m -5.77897,3.585311 c 0.91745,0.229656 1.85119,0.417406 2.79931,0.562239 -0.0328,0.07948 -0.0666,0.156568 -0.0987,0.237712 -0.60374,1.525075 -1.08705,3.343518 -1.41645,5.360396 -1.493,-0.07207 -2.98423,-0.16993 -4.47363,-0.293005 0.58825,-1.842163 1.41584,-3.502723 2.42724,-4.903577 0.24346,-0.337212 0.49855,-0.657762 0.76223,-0.963765 z m 14.89263,0.0078 c 0.26131,0.303706 0.51408,0.621621 0.75551,0.956014 1.01196,1.401643 1.8405,3.063273 2.42931,4.906677 -1.49422,0.123054 -2.99027,0.220783 -4.4881,0.292489 -0.32994,-2.017904 -0.81401,-3.837258 -1.418,-5.36298 -0.0311,-0.07866 -0.0638,-0.153375 -0.0956,-0.230477 0.95403,-0.144148 1.89378,-0.331716 2.81688,-0.561723 z m -11.7414,0.606165 c 1.35396,0.190749 2.73663,0.292064 4.14134,0.299723 v 5.396053 c -1.89012,-0.0026 -3.77734,-0.04691 -5.66167,-0.132808 0.32612,-1.981013 0.80141,-3.762721 1.3901,-5.249809 0.0424,-0.107027 0.0867,-0.20923 0.13023,-0.313159 z m 8.57415,0.0062 c 0.0426,0.101931 0.0861,0.202051 0.12764,0.306958 0.5889,1.487607 1.06488,3.270031 1.39113,5.251876 -1.86644,0.08436 -3.73578,0.128144 -5.60793,0.130741 v -5.396053 c 1.38678,-0.0078 2.75178,-0.107258 4.08916,-0.293522 z" /><path
                     id="path8462"
                     style="color:#000000;fill:#211e53;fill-opacity:1"
                     d="m 113.0917,94.378906 v -0.0026 c -2.81488,-0.04784 -5.39162,-1.433915 -7.41195,-3.7052 -0.62319,0.160701 -1.23885,0.340458 -1.84588,0.538985 l -0.3607,-0.243913 c 0.64223,-0.216395 1.29394,-0.411807 1.9544,-0.586011 -0.23115,-0.274746 -0.45473,-0.561078 -0.66972,-0.858862 -1.04846,-1.452174 -1.90038,-3.171069 -2.50011,-5.075142 -1.28908,0.109978 -2.57691,0.23815 -3.863329,0.385506 l -0.03927,-0.341581 c 1.265209,-0.144927 2.531939,-0.271947 3.799759,-0.380856 -0.57066,-1.928328 -0.88521,-4.037749 -0.88521,-6.248197 h 0.34365 c 0,2.204116 0.31833,4.305025 0.89245,6.219259 1.50628,-0.125377 3.01428,-0.225323 4.52427,-0.29869 -0.28125,-1.838566 -0.43667,-3.833234 -0.43667,-5.920569 h 0.34417 c 0,2.083978 0.15707,4.074456 0.43925,5.904549 1.90196,-0.08732 3.80704,-0.132787 5.71489,-0.135392 v -5.769157 h 0.34365 v 5.769157 c 1.8899,0.0026 3.77706,0.04704 5.66116,0.132808 0.28204,-1.829379 0.43873,-3.818976 0.43873,-5.901965 h 0.34365 c 0,2.086558 -0.15566,4.080502 -0.43719,5.918502 1.51482,0.073 3.02767,0.172308 4.53875,0.297656 0.57404,-1.913403 0.89245,-4.013227 0.89245,-6.216158 h 0.34365 c 0,2.209305 -0.31511,4.317578 -0.88574,6.245097 1.28044,0.109625 2.55975,0.237591 3.83749,0.383956 l -0.0393,0.341581 c -1.29897,-0.148793 -2.5994,-0.277924 -3.90105,-0.388607 -0.60028,1.905257 -1.45266,3.625313 -2.50166,5.078243 -0.21269,0.29459 -0.43398,0.578026 -0.66249,0.850077 0.6739,0.176974 1.33875,0.376515 1.99367,0.59738 l -0.30385,0.261999 c -0.63825,-0.210329 -1.28586,-0.400032 -1.942,-0.56844 -2.01128,2.26499 -4.57444,3.65232 -7.3763,3.713468 v 0.0031 h -0.19327 -0.0134 z m 0,-0.349333 v -4.315499 c -1.35662,0.0075 -2.69208,0.103588 -4.00078,0.284221 0.5199,1.168692 1.11369,2.123113 1.75286,2.80603 0.70915,0.757697 1.46488,1.178875 2.24792,1.225248 z m 0.34365,-0.0036 c 0.76363,-0.0623 1.50095,-0.481509 2.19367,-1.221631 0.6404,-0.684241 1.23492,-1.64095 1.75545,-2.812748 -1.29218,-0.176158 -2.61027,-0.269941 -3.94912,-0.277503 z m 1.45366,-0.153479 c 2.07188,-0.408507 3.97059,-1.576456 5.54592,-3.304191 -0.8842,-0.214836 -1.78387,-0.390655 -2.69648,-0.526066 -0.54024,1.238846 -1.16388,2.257403 -1.85777,2.998783 -0.31551,0.337103 -0.64714,0.616118 -0.99167,0.831474 z m -3.31091,-0.0031 c -0.34265,-0.214916 -0.6726,-0.492983 -0.9865,-0.828373 -0.69249,-0.739876 -1.31633,-1.756107 -1.85622,-2.991549 -0.90684,0.136151 -1.80073,0.312534 -2.67942,0.5271 1.56958,1.718777 3.46,2.881916 5.52214,3.292822 z m -5.77897,-3.585311 c 0.91745,-0.229656 1.85119,-0.417406 2.79931,-0.562239 -0.0328,-0.07948 -0.0666,-0.156568 -0.0987,-0.237712 -0.60374,-1.525075 -1.08705,-3.343518 -1.41645,-5.360396 -1.493,0.07207 -2.98423,0.16993 -4.47363,0.293005 0.58825,1.842163 1.41584,3.502723 2.42724,4.903577 0.24346,0.337212 0.49855,0.657762 0.76223,0.963765 z m 14.89263,-0.0078 c 0.26131,-0.303706 0.51408,-0.621621 0.75551,-0.956014 1.01196,-1.401643 1.8405,-3.063273 2.42931,-4.906677 -1.49422,-0.123054 -2.99027,-0.220783 -4.4881,-0.292489 -0.32994,2.017904 -0.81401,3.837258 -1.418,5.36298 -0.0311,0.07866 -0.0638,0.153375 -0.0956,0.230477 0.95403,0.144148 1.89378,0.331716 2.81688,0.561723 z m -11.7414,-0.606165 c 1.35396,-0.190749 2.73663,-0.292064 4.14134,-0.299723 v -5.396053 c -1.89012,0.0026 -3.77734,0.04691 -5.66167,0.132808 0.32612,1.981013 0.80141,3.762721 1.3901,5.249809 0.0424,0.107027 0.0867,0.20923 0.13023,0.313159 z m 8.57415,-0.0062 c 0.0426,-0.101931 0.0861,-0.202051 0.12764,-0.306958 0.5889,-1.487607 1.06488,-3.270031 1.39113,-5.251876 -1.86644,-0.08436 -3.73578,-0.128144 -5.60793,-0.130741 v 5.396053 c 1.38678,0.0078 2.75178,0.107258 4.08916,0.293522 z" /></g><path
                   style="color:#000000;fill:#211e53;fill-opacity:1;fill-rule:evenodd"
                   d="m 113.26172,61.34375 c -9.12032,0 -16.517579,7.397261 -16.517579,16.517578 0,9.120317 7.397259,16.517578 16.517579,16.517578 9.12032,0 16.51758,-7.397261 16.51758,-16.517578 0,-9.120317 -7.39726,-16.517578 -16.51758,-16.517578 z m 0,0.34375 c 8.93443,0 16.17383,7.2394 16.17383,16.173828 0,8.934428 -7.2394,16.171875 -16.17383,16.171875 -8.93443,0 -16.173829,-7.237447 -16.173829,-16.171875 0,-8.934428 7.239399,-16.173828 16.173829,-16.173828 z"
                   id="path4550" /></g></g><path
               id="path1949"
               style="font-size:5.02708px;line-height:1.25;font-family:'Heisei Mincho Std W9';-inkscape-font-specification:'Heisei Mincho Std W9';stroke-width:0.328385"
               d="m 115.2695,56.373271 c -0.35005,0.0017 -0.60971,0.112013 -0.80254,0.287088 -0.25494,0.22209 -0.38301,0.56741 -0.41134,0.923109 l -5.2e-4,0.0055 c -0.0315,0.395858 0.0626,0.735382 0.26045,0.975901 0.17425,0.220691 0.43039,0.363068 0.78083,0.399713 0.37046,0.03873 0.66565,-0.115552 0.8537,-0.385132 l 0.0145,0.0076 c -0.0498,0.625341 -0.17329,1.09808 -0.36225,1.379133 -0.1366,0.19397 -0.31016,0.280354 -0.5054,0.259939 -0.12516,-0.01309 -0.24675,-0.07241 -0.32091,-0.155361 -0.0828,-0.101212 -0.13207,-0.239099 -0.17208,-0.37055 -0.0805,-0.257164 -0.14133,-0.379275 -0.34158,-0.400215 -0.16021,-0.01675 -0.25652,0.111666 -0.26976,0.278038 -0.0146,0.183587 0.0645,0.394358 0.24237,0.569151 0.18746,0.181578 0.47447,0.315785 0.82992,0.352953 0.48561,0.05078 0.85615,-0.100998 1.11931,-0.426359 0.29731,-0.373851 0.45225,-0.924567 0.50798,-1.624492 0.10552,-1.325265 -0.45257,-1.985338 -1.21853,-2.065432 -0.0712,-0.0074 -0.1393,-0.01086 -0.20412,-0.01056 z m -3.44217,0.006 c -0.0469,3.8e-5 -0.0942,0.0026 -0.14211,0.0076 -0.45567,0.04635 -0.7547,0.227216 -0.94723,0.478146 -0.21623,0.270692 -0.28852,0.636214 -0.26096,0.991991 l 5.1e-4,0.006 c 0.0307,0.395947 0.17604,0.710868 0.40825,0.907021 0.20583,0.181484 0.47993,0.268951 0.83044,0.233291 0.37055,-0.03769 0.63678,-0.249835 0.7798,-0.553564 l 0.0155,0.0046 c 0.0485,0.625479 5.3e-4,1.116218 -0.1416,1.431423 -0.10416,0.218806 -0.26101,0.338616 -0.4563,0.358484 -0.12519,0.01274 -0.25414,-0.02053 -0.34003,-0.08698 -0.0972,-0.08265 -0.16752,-0.208172 -0.22738,-0.329323 -0.11926,-0.236561 -0.19812,-0.34417 -0.39842,-0.323792 -0.16023,0.01631 -0.23458,0.162406 -0.22169,0.32882 0.0142,0.183626 0.12482,0.374747 0.32711,0.510325 0.21274,0.140295 0.51626,0.213649 0.87178,0.177481 0.48572,-0.04942 0.82633,-0.275111 1.03456,-0.649092 0.23428,-0.428685 0.30073,-1.002345 0.2465,-1.702423 -0.0963,-1.242712 -0.67544,-1.790482 -1.37873,-1.789907 z m 3.5817,0.272508 c 0.0189,-1.25e-4 0.0382,9.55e-4 0.0579,0.003 0.4055,0.0424 0.57659,0.621532 0.52452,1.27556 -0.0196,0.246694 -0.0973,0.394964 -0.20877,0.527922 -0.11792,0.149644 -0.28723,0.247212 -0.49248,0.225749 -0.17022,-0.01779 -0.30317,-0.118087 -0.39687,-0.272508 -0.10007,-0.201364 -0.13729,-0.500324 -0.11628,-0.76423 l 5.2e-4,-0.006 c 0.0228,-0.286854 0.0887,-0.540311 0.19844,-0.713951 0.10522,-0.172485 0.25024,-0.274321 0.43305,-0.275525 z m -3.65043,9.73e-4 c 0.38396,-0.0055 0.62838,0.515633 0.67748,1.149362 0.0191,0.246749 -0.034,0.408463 -0.12299,0.562111 -0.0927,0.171372 -0.24428,0.302404 -0.44958,0.32329 -0.17025,0.01732 -0.31731,-0.05428 -0.43357,-0.187036 -0.12984,-0.177649 -0.21261,-0.464066 -0.23306,-0.728029 l -5.2e-4,-0.006 c -0.0222,-0.286917 0.003,-0.549806 0.0842,-0.743113 0.0846,-0.21103 0.23049,-0.347142 0.4408,-0.368539 0.0127,-0.0013 0.0248,-0.0018 0.0372,-0.002 z m -3.175,0.352451 c -0.26627,0.269437 -0.5267,0.495613 -0.96221,0.797413 l 0.0847,0.236811 c 0.12853,-0.09765 0.22216,-0.167013 0.30489,-0.19156 0.10706,-0.03177 0.15362,0.06127 0.21032,0.312228 l 0.50281,2.225318 c 0.0895,0.395968 0.0731,0.460436 -0.37465,0.593284 l 0.0553,0.245358 1.59164,-0.472114 -0.0553,-0.245358 c -0.41367,0.122741 -0.46036,0.0772 -0.54983,-0.318765 l -0.71469,-3.162503 z m 10.12342,0.07743 c -0.11948,0.0021 -0.22791,0.0196 -0.3235,0.04676 -0.24942,0.08215 -0.44639,0.270232 -0.49609,0.475633 -0.047,0.194299 0.0182,0.334952 0.15864,0.379601 0.1647,0.05234 0.27417,0.0094 0.38551,-0.170443 0.0955,-0.178903 0.19422,-0.285235 0.30076,-0.358988 0.12241,-0.07468 0.25445,-0.08041 0.40462,-0.03268 0.16471,0.05235 0.26897,0.139362 0.33332,0.261447 0.0714,0.136269 0.0853,0.313911 0.0315,0.535967 -0.0954,0.394146 -0.34325,0.578572 -0.78962,0.741604 -0.4504,0.179688 -0.71861,0.339383 -0.97926,0.597306 -0.29347,0.307281 -0.49621,0.649575 -0.6656,1.02618 l 0.0677,0.129216 2.21898,0.704901 0.4005,-0.966852 -0.2496,-0.109103 c -0.20436,0.413319 -0.28548,0.489414 -0.62942,0.380103 l -1.24488,-0.395689 c 0.2068,-0.358739 0.45775,-0.578048 0.85059,-0.692333 0.30995,-0.11671 0.68406,-0.194942 1.03301,-0.365019 0.28626,-0.148157 0.57858,-0.366102 0.67128,-0.749147 0.0779,-0.32198 7.4e-4,-0.627476 -0.17829,-0.857748 -0.16234,-0.21301 -0.43772,-0.390424 -0.78651,-0.501274 -0.18802,-0.05976 -0.36005,-0.08217 -0.51366,-0.07944 z" /></g><path
             id="path4210"
             style="color:#000000;-inkscape-font-specification:'Heisei Mincho Std W9';fill:#ffffff;fill-opacity:1;stroke-width:0.264583"
             d="m 109.7939,66.626846 v 0.72812 h 0.1328 c 0.18661,0 0.32767,0.0053 0.42789,0.02171 0.10021,0.01641 0.15308,0.04092 0.18551,0.07235 0.0324,0.03142 0.0584,0.08093 0.076,0.179317 0.0175,0.09839 0.0233,0.240829 0.0233,0.427881 v 4.867403 c 0,0.363412 -0.0344,0.536551 -0.10128,0.605131 -0.0334,0.03429 -0.0843,0.06162 -0.1819,0.0801 -0.0976,0.01848 -0.23474,0.02532 -0.41755,0.02532 h -0.13281 v 0.728637 h 2.61896 v -0.728637 h -0.1328 c -0.18569,0 -0.32567,-0.0068 -0.42375,-0.02532 -0.0981,-0.01848 -0.14731,-0.04423 -0.17984,-0.07803 -0.0325,-0.03379 -0.0577,-0.08646 -0.0744,-0.185519 -0.0167,-0.09906 -0.0233,-0.239634 -0.0233,-0.421679 v -4.374927 l 3.75015,5.919535 h 1.25367 v -6.402193 c 0,-0.362067 0.0381,-0.535705 0.10542,-0.605648 0.0337,-0.03497 0.0828,-0.06188 0.17415,-0.0801 0.0913,-0.01822 0.22013,-0.02532 0.38861,-0.02532 h 0.13281 v -0.72812 h -2.60966 v 0.72812 h 0.13281 c 0.37137,0 0.54687,0.03753 0.61753,0.107487 0.0353,0.03498 0.0638,0.08727 0.0822,0.185519 0.0184,0.09825 0.0253,0.23669 0.0253,0.418062 v 3.865397 l -3.30109,-5.304585 h -0.0724 z" /><g
             id="g4333"
             transform="matrix(0.99999858,0,0,1,-162.72337,27.811997)"><path
               id="path4323"
               style="color:#000000;-inkscape-font-specification:'Heisei Mincho Std W9';fill:#ffffff;fill-opacity:1;stroke-width:0.264583"
               d="m 276.58002,53.833923 c -0.93042,0 -1.66741,0.218107 -2.2071,0.599447 -0.6051,0.427141 -0.91959,1.084747 -0.94103,1.762166 -0.018,0.566606 0.16242,1.029454 0.43511,1.384412 0.50791,0.661133 1.24848,1.03237 1.81075,1.365291 0.58945,0.349011 0.92217,0.559955 1.12499,0.794784 0.1514,0.175294 0.18921,0.26604 0.17984,0.494543 -0.008,0.196688 -0.11713,0.396624 -0.21911,0.488342 -0.12464,0.112094 -0.35113,0.196888 -0.6227,0.196888 -0.37516,0 -0.57333,-0.05498 -0.74828,-0.203089 -0.1712,-0.144936 -0.35638,-0.441952 -0.51159,-1.027327 l -0.12299,-0.463021 -1.59009,0.382922 0.48266,2.414323 0.29507,0.09353 c 0.61033,0.190875 1.37932,0.33228 2.15026,0.33228 1.12687,0 1.99783,-0.308615 2.56625,-0.828373 0.41091,-0.375731 0.79259,-0.953596 0.80667,-1.783354 0.0122,-0.722255 -0.24568,-1.2477 -0.57619,-1.60352 -0.46343,-0.498912 -0.95235,-0.724093 -1.82211,-1.283125 -0.38682,-0.248625 -0.82368,-0.487471 -1.08418,-0.777214 -0.0999,-0.111148 -0.13741,-0.244176 -0.1328,-0.341581 0.008,-0.164401 0.0274,-0.206173 0.11162,-0.283187 0.10918,-0.09991 0.30358,-0.186035 0.59376,-0.186035 0.20515,0 0.3447,0.0159 0.43925,0.04341 0.0945,0.02751 0.14565,0.06203 0.1974,0.115238 0.0929,0.09549 0.22002,0.368374 0.32608,0.880567 l 0.0935,0.458887 1.58026,-0.257866 -0.34778,-2.343526 c -0.0943,-0.03298 -0.19179,-0.07168 -0.28319,-0.10542 -0.51334,-0.189515 -1.19491,-0.31989 -1.98024,-0.320394 h -0.002 z" /><path
               id="path4219"
               style="color:#000000;-inkscape-font-specification:'Heisei Mincho Std W9';display:inline;fill:#000000;fill-opacity:1;stroke-width:0;stroke-dasharray:none"
               d="m 276.58002,53.966732 c -0.90988,0 -1.61795,0.211883 -2.13062,0.574125 -0.57068,0.402849 -0.86446,1.018637 -0.8847,1.658296 -0.017,0.53663 0.15203,0.967076 0.40835,1.300726 0.48443,0.63057 1.20321,0.995776 1.77146,1.332233 0.59039,0.349568 0.93532,0.56368 1.15858,0.822172 0.16333,0.189107 0.22113,0.335138 0.21084,0.58601 -0.01,0.237003 -0.12804,0.460091 -0.26173,0.580326 -0.15666,0.140892 -0.41243,0.232544 -0.71106,0.232544 -0.38949,0 -0.63165,-0.06326 -0.83406,-0.234611 -0.20241,-0.171359 -0.3955,-0.495948 -0.55449,-1.095541 l -0.0899,-0.337963 -1.33945,0.324011 0.44128,2.211234 0.22066,0.07028 c 0.59775,0.18694 1.3563,0.326079 2.11098,0.326079 1.10276,0 1.93896,-0.301389 2.47685,-0.793234 0.39191,-0.35836 0.75074,-0.896509 0.76416,-1.687285 0.0117,-0.690166 -0.23126,-1.178028 -0.54149,-1.512016 -0.4451,-0.479186 -0.92183,-0.699049 -1.79679,-1.261421 -0.38034,-0.244461 -0.82722,-0.484751 -1.11153,-0.800969 -0.12336,-0.137211 -0.17223,-0.301238 -0.16588,-0.435665 0.009,-0.18193 0.0501,-0.279139 0.15451,-0.374655 0.13857,-0.126804 0.36681,-0.220658 0.68316,-0.220658 0.42383,0 0.60046,0.06505 0.73071,0.198954 0.13026,0.133908 0.25309,0.422982 0.36122,0.945162 l 0.0687,0.335897 1.32602,-0.216524 -0.31677,-2.136821 -0.21084,-0.07803 c -0.49755,-0.183062 -1.1649,-0.312642 -1.93735,-0.312642 z" /></g></g></g></g></g><metadata
     id="metadata5088"><rdf:RDF><cc:Work
         rdf:about=""><dc:title>North South University - নর্থ সাউথ বিশ্ববিদ্যালয়</dc:title></cc:Work></rdf:RDF></metadata></svg>
